<svg width="56" height="27" viewBox="0 0 56 27" fill="none" xmlns="http://www.w3.org/2000/svg">
<path d="M1.918 20.943C1.72 20.943 1.513 20.907 1.297 20.835C1.081 20.763 0.892 20.637 0.73 20.457C0.568 20.295 0.487 20.142 0.487 19.998C0.487 19.908 0.523 19.818 0.595 19.728C0.649 19.638 0.712 19.548 0.784 19.458C0.946 19.26 1.252 18.99 1.702 18.648C2.152 18.324 2.665 17.955 3.241 17.541L2.485 18.243C2.413 18.315 2.341 18.414 2.269 18.54C2.215 18.684 2.224 18.72 2.296 18.648C2.458 18.45 2.836 18.117 3.43 17.649C4.024 17.163 4.654 16.668 5.32 16.164L3.241 17.541C3.853 17.073 4.483 16.605 5.131 16.137C5.779 15.669 6.364 15.246 6.886 14.868C7.426 14.49 7.822 14.229 8.074 14.085C8.092 14.067 8.119 14.058 8.155 14.058C8.227 14.058 8.263 14.085 8.263 14.139C8.263 14.211 8.191 14.274 8.047 14.328C7.831 14.418 7.462 14.643 6.94 15.003C6.436 15.345 5.896 15.732 5.32 16.164C6.022 15.696 6.688 15.273 7.318 14.895C7.966 14.499 8.461 14.202 8.803 14.004C8.587 13.86 8.236 13.698 7.75 13.518C7.264 13.338 6.706 13.122 6.076 12.87C5.464 12.6 4.834 12.285 4.186 11.925C3.556 11.565 2.998 11.142 2.512 10.656C2.278 10.44 2.107 10.215 1.999 9.981C1.909 9.729 1.864 9.486 1.864 9.252C1.864 8.694 2.089 8.118 2.539 7.524C3.007 6.93 3.619 6.345 4.375 5.769C5.149 5.193 5.986 4.653 6.886 4.149C7.318 3.915 7.759 3.69 8.209 3.474C8.677 3.24 9.136 3.024 9.586 2.826C9.082 3.006 8.587 3.195 8.101 3.393C7.615 3.591 7.147 3.798 6.697 4.014C6.679 4.032 6.661 4.041 6.643 4.041C6.625 4.041 6.616 4.041 6.616 4.041L7.102 3.744C8.056 3.276 9.019 2.871 9.991 2.529C10.981 2.169 11.917 1.854 12.799 1.584C12.277 1.746 11.746 1.935 11.206 2.151C10.666 2.349 10.126 2.574 9.586 2.826C10.648 2.448 11.71 2.124 12.772 1.854C13.852 1.566 14.851 1.35 15.769 1.206C16.687 1.044 17.443 0.953999 18.037 0.935999C18.379 0.917999 18.55 0.872999 18.55 0.800999C18.55 0.746999 18.46 0.719999 18.28 0.719999C17.668 0.737999 16.93 0.800999 16.066 0.909C15.202 1.017 14.266 1.197 13.258 1.449C14.212 1.179 15.112 0.962999 15.958 0.800999C16.822 0.638999 17.569 0.557999 18.199 0.557999C18.523 0.557999 18.82 0.584999 19.09 0.639C19.324 0.674999 19.531 0.827999 19.711 1.098C19.891 1.35 20.053 1.647 20.197 1.989C20.341 2.313 20.44 2.619 20.494 2.907L20.521 2.826C20.593 2.7 20.638 2.592 20.656 2.502C20.674 2.394 20.71 2.295 20.764 2.205C20.8 2.151 20.881 2.223 21.007 2.421C21.151 2.619 21.277 2.844 21.385 3.096C21.511 3.348 21.556 3.564 21.52 3.744C21.466 4.068 21.295 4.428 21.007 4.824C20.719 5.202 20.377 5.571 19.981 5.931C19.603 6.291 19.216 6.588 18.82 6.822C18.442 7.056 18.109 7.173 17.821 7.173C17.749 7.173 17.659 7.155 17.551 7.119C17.767 6.939 17.965 6.75 18.145 6.552C18.325 6.354 18.496 6.156 18.658 5.958C17.974 6.57 17.2 7.155 16.336 7.713C15.49 8.253 14.68 8.694 13.906 9.036C13.132 9.378 12.52 9.549 12.07 9.549C11.836 9.549 11.719 9.504 11.719 9.414C11.719 9.324 11.818 9.216 12.016 9.09C12.214 8.946 12.358 8.847 12.448 8.793C12.88 8.595 13.411 8.271 14.041 7.821C14.689 7.371 15.346 6.876 16.012 6.336C16.678 5.778 17.263 5.247 17.767 4.743C18.289 4.221 18.64 3.798 18.82 3.474C18.838 3.294 18.703 3.168 18.415 3.096C18.127 3.024 17.749 2.988 17.281 2.988C16.687 2.988 15.967 3.051 15.121 3.177C14.293 3.303 13.42 3.483 12.502 3.717C11.584 3.951 10.702 4.23 9.856 4.554C9.01 4.878 8.272 5.247 7.642 5.661C7.21 5.895 6.778 6.192 6.346 6.552C5.914 6.894 5.554 7.263 5.266 7.659C4.978 8.055 4.834 8.442 4.834 8.82C4.834 9.126 4.969 9.414 5.239 9.684C5.959 10.332 6.733 10.872 7.561 11.304C8.407 11.736 9.181 12.123 9.883 12.465C10.603 12.789 11.125 13.131 11.449 13.491C11.539 13.581 11.602 13.716 11.638 13.896C11.692 14.076 11.719 14.265 11.719 14.463C11.719 14.805 11.665 15.129 11.557 15.435C11.449 15.741 11.296 15.912 11.098 15.948C9.586 16.254 8.29 16.623 7.21 17.055C6.148 17.487 5.284 17.91 4.618 18.324C3.952 18.738 3.457 19.08 3.133 19.35C2.827 19.62 2.656 19.746 2.62 19.728C2.764 19.926 2.836 20.115 2.836 20.295C2.836 20.493 2.746 20.646 2.566 20.754C2.386 20.88 2.17 20.943 1.918 20.943ZM12.799 1.584L12.907 1.557H12.961L13.042 1.53L13.096 1.503C13.15 1.485 13.177 1.476 13.177 1.476C13.177 1.476 13.204 1.467 13.258 1.449C13.258 1.449 13.249 1.449 13.231 1.449C13.231 1.449 13.186 1.467 13.096 1.503C13.078 1.503 13.06 1.512 13.042 1.53C13.006 1.53 12.979 1.539 12.961 1.557C12.943 1.557 12.925 1.566 12.907 1.584C12.889 1.584 12.889 1.575 12.907 1.557C12.871 1.575 12.835 1.584 12.799 1.584ZM11.77 26.316C11.644 26.316 11.5 26.271 11.338 26.181C11.158 26.091 11.014 25.974 10.906 25.83C10.546 25.326 10.366 24.678 10.366 23.886C10.366 23.382 10.555 22.689 10.933 21.807C11.293 20.943 11.779 19.971 12.391 18.891C13.003 17.829 13.678 16.74 14.416 15.624C15.154 14.508 15.883 13.455 16.603 12.465C17.341 11.475 18.016 10.629 18.628 9.927C18.268 10.269 17.89 10.665 17.494 11.115C17.116 11.565 16.765 11.979 16.441 12.357C16.135 12.735 15.919 13.005 15.793 13.167C15.775 13.185 15.766 13.176 15.766 13.14C15.784 13.086 15.829 12.996 15.901 12.87C15.901 12.852 16 12.726 16.198 12.492C16.396 12.24 16.639 11.934 16.927 11.574C17.233 11.214 17.539 10.854 17.845 10.494C18.169 10.134 18.466 9.828 18.736 9.576C18.682 9.486 18.628 9.396 18.574 9.306C18.538 9.216 18.52 9.135 18.52 9.063C18.52 8.901 18.646 8.82 18.898 8.82C19.024 8.82 19.132 8.829 19.222 8.847C19.474 8.883 19.753 9.036 20.059 9.306C20.383 9.576 20.563 9.81 20.599 10.008C20.491 10.17 20.356 10.332 20.194 10.494C20.05 10.656 19.888 10.836 19.708 11.034C20.086 10.782 20.518 10.476 21.004 10.116C21.49 9.756 21.985 9.396 22.489 9.036C23.011 8.676 23.479 8.379 23.893 8.145C24.325 7.893 24.658 7.767 24.892 7.767C25.396 7.767 25.747 7.911 25.945 8.199C26.143 8.487 26.242 8.829 26.242 9.225C26.242 9.513 26.197 9.81 26.107 10.116C26.017 10.422 25.9 10.683 25.756 10.899C25.72 10.953 25.594 11.151 25.378 11.493C25.18 11.817 24.946 12.159 24.676 12.519C24.424 12.861 24.208 13.104 24.028 13.248C24.334 12.762 24.586 12.33 24.784 11.952C24.982 11.556 25.036 11.358 24.946 11.358C24.496 12.186 24.118 12.834 23.812 13.302C23.524 13.77 23.281 14.121 23.083 14.355C22.903 14.589 22.741 14.805 22.597 15.003C21.877 15.939 21.085 16.749 20.221 17.433C19.357 18.117 18.484 18.459 17.602 18.459C17.206 18.459 16.837 18.387 16.495 18.243C16.171 18.099 15.892 17.973 15.658 17.865C15.442 17.757 15.28 17.64 15.172 17.514C14.794 18.126 14.398 18.801 13.984 19.539C13.57 20.277 13.183 21.006 12.823 21.726C12.463 22.446 12.166 23.094 11.932 23.67C11.698 24.246 11.572 24.678 11.554 24.966C11.554 25.272 11.653 25.542 11.851 25.776C11.977 25.92 12.04 26.037 12.04 26.127C12.04 26.253 11.95 26.316 11.77 26.316ZM16.846 17.514C17.044 17.424 17.341 17.244 17.737 16.974C18.151 16.704 18.511 16.425 18.817 16.137C19.051 15.921 19.366 15.615 19.762 15.219C20.158 14.805 20.581 14.346 21.031 13.842C21.481 13.32 21.913 12.78 22.327 12.222C22.741 11.646 23.074 11.079 23.326 10.521C23.254 10.647 23.137 10.809 22.975 11.007C22.813 11.205 22.642 11.412 22.462 11.628C22.642 11.394 22.795 11.178 22.921 10.98C23.047 10.764 23.146 10.593 23.218 10.467C23.38 10.179 23.506 9.918 23.596 9.684C23.704 9.45 23.749 9.27 23.731 9.144C23.659 9.18 23.569 9.225 23.461 9.279C23.371 9.333 23.272 9.405 23.164 9.495C22.462 9.981 21.688 10.557 20.842 11.223C20.014 11.889 19.204 12.6 18.412 13.356C17.638 14.094 16.972 14.832 16.414 15.57C16.306 15.696 16.18 15.876 16.036 16.11C15.892 16.344 15.721 16.614 15.523 16.92C15.703 17.136 15.892 17.244 16.09 17.244C16.936 17.244 17.89 16.749 18.952 15.759L18.979 15.732L19.087 15.624C19.087 15.624 19.078 15.633 19.06 15.651C19.06 15.651 19.033 15.678 18.979 15.732C18.961 15.732 18.952 15.741 18.952 15.759C18.52 16.155 18.097 16.488 17.683 16.758C17.269 17.028 16.846 17.226 16.414 17.352C16.36 17.37 16.333 17.397 16.333 17.433C16.333 17.469 16.387 17.505 16.495 17.541C16.621 17.577 16.738 17.568 16.846 17.514ZM22.327 11.79L22.354 11.763L22.381 11.736V11.709H22.408L22.435 11.682V11.655H22.462V11.628C22.462 11.628 22.462 11.637 22.462 11.655C22.462 11.655 22.453 11.655 22.435 11.655C22.435 11.655 22.435 11.664 22.435 11.682C22.417 11.682 22.408 11.691 22.408 11.709C22.408 11.709 22.399 11.709 22.381 11.709C22.381 11.727 22.381 11.736 22.381 11.736C22.363 11.754 22.354 11.763 22.354 11.763C22.336 11.781 22.327 11.79 22.327 11.79ZM19.249 15.462C19.393 15.318 19.528 15.156 19.654 14.976C19.798 14.778 19.942 14.598 20.086 14.436C20.284 14.22 20.572 13.905 20.95 13.491C21.328 13.059 21.697 12.618 22.057 12.168C21.661 12.672 21.22 13.221 20.734 13.815C20.248 14.391 19.753 14.94 19.249 15.462ZM26.2011 18.459C26.0931 18.459 25.9221 18.333 25.6881 18.081C25.4721 17.847 25.2471 17.586 25.0131 17.298C24.7971 16.992 24.6351 16.767 24.5271 16.623C24.6891 15.921 24.9681 15.192 25.3641 14.436C25.7781 13.662 26.2551 12.906 26.7951 12.168C27.3351 11.43 27.8751 10.746 28.4151 10.116C28.9731 9.486 29.4591 8.955 29.8731 8.523C29.5671 8.757 29.2431 9.063 28.9011 9.441C28.5591 9.801 28.3251 10.044 28.1991 10.17C27.9831 10.386 27.7671 10.602 27.5511 10.818C27.3351 11.016 27.1371 11.214 26.9571 11.412C27.4971 10.746 28.0281 10.134 28.5501 9.576C29.0901 9.018 29.4771 8.649 29.7111 8.469C29.7651 8.415 29.8371 8.352 29.9271 8.28C30.0351 8.208 30.1521 8.163 30.2781 8.145L30.4941 7.902C30.9801 7.92 31.5021 8.073 32.0601 8.361C32.6181 8.631 33.0951 8.991 33.4911 9.441C33.9051 9.873 34.1211 10.368 34.1391 10.926C34.1391 10.998 34.1031 11.07 34.0311 11.142C33.9591 11.196 33.9051 11.16 33.8691 11.034C33.7431 10.764 33.5991 10.521 33.4371 10.305C33.2751 10.089 33.0951 9.918 32.8971 9.792C32.7171 9.684 32.5281 9.63 32.3301 9.63C32.1141 9.63 31.9161 9.702 31.7361 9.846C31.3761 10.116 30.9441 10.521 30.4401 11.061C29.9541 11.583 29.4591 12.15 28.9551 12.762C28.4691 13.374 28.0281 13.968 27.6321 14.544C27.2541 15.12 26.9931 15.597 26.8491 15.975C26.9571 15.849 27.1461 15.669 27.4161 15.435C27.6861 15.201 27.9741 14.967 28.2801 14.733C28.5861 14.481 28.8471 14.274 29.0631 14.112C29.1351 14.058 29.2881 13.95 29.5221 13.788C29.7561 13.626 29.9991 13.455 30.2511 13.275C30.5211 13.095 30.7371 12.96 30.8991 12.87C30.8991 12.906 30.7911 13.005 30.5751 13.167C30.3771 13.329 30.1341 13.509 29.8461 13.707C29.5581 13.905 29.2881 14.085 29.0361 14.247C28.8021 14.409 28.6581 14.517 28.6041 14.571C28.4061 14.751 28.1721 14.958 27.9021 15.192C27.6501 15.426 27.4161 15.642 27.2001 15.84C26.9841 16.038 26.8401 16.182 26.7681 16.272C26.7321 16.344 26.7231 16.389 26.7411 16.407C26.7591 16.425 26.7951 16.398 26.8491 16.326C27.0111 16.092 27.2541 15.84 27.5781 15.57C27.9021 15.3 28.2531 15.03 28.6311 14.76C29.0271 14.472 29.3781 14.211 29.6841 13.977C30.0441 13.707 30.3681 13.473 30.6561 13.275C30.9621 13.059 31.2321 12.861 31.4661 12.681C31.4841 12.303 31.6191 12.042 31.8711 11.898C32.1411 11.754 32.3481 11.709 32.4921 11.763C32.6001 11.799 32.7621 11.871 32.9781 11.979C33.2121 12.069 33.4191 12.186 33.5991 12.33C33.7791 12.456 33.8331 12.6 33.7611 12.762C33.6351 13.05 33.5361 13.5 33.4641 14.112C33.4101 14.706 33.3831 15.255 33.3831 15.759C33.3831 16.479 33.6081 16.839 34.0581 16.839C34.2921 16.839 34.6071 16.713 35.0031 16.461C35.1471 16.371 35.2551 16.326 35.3271 16.326C35.3811 16.326 35.4081 16.353 35.4081 16.407C35.4081 16.479 35.3631 16.587 35.2731 16.731C35.1831 16.857 35.1201 16.938 35.0841 16.974C34.8681 17.208 34.6071 17.424 34.3011 17.622C34.0131 17.802 33.7161 17.892 33.4101 17.892C33.2841 17.892 33.1581 17.874 33.0321 17.838C32.9061 17.802 32.7801 17.739 32.6541 17.649C32.2041 17.343 31.8801 16.875 31.6821 16.245C31.5021 15.615 31.4121 15.075 31.4121 14.625C31.4121 14.517 31.4121 14.418 31.4121 14.328C31.4301 14.238 31.4481 14.157 31.4661 14.085C31.2681 14.247 30.9351 14.526 30.4671 14.922C30.0171 15.3 29.5131 15.732 28.9551 16.218C28.3971 16.686 27.8661 17.127 27.3621 17.541C26.8581 17.955 26.4711 18.261 26.2011 18.459ZM38.3842 18.189C37.9882 18.189 37.5652 18.036 37.1152 17.73C36.6652 17.424 36.2782 17.064 35.9542 16.65C35.6482 16.236 35.4952 15.858 35.4952 15.516C35.4952 14.976 35.6392 14.4 35.9272 13.788C36.2152 13.158 36.5932 12.528 37.0612 11.898C37.5292 11.268 38.0512 10.683 38.6272 10.143C39.2032 9.585 39.7792 9.117 40.3552 8.739C40.3912 8.541 40.5442 8.343 40.8142 8.145C41.0842 7.929 41.4082 7.821 41.7862 7.821C42.0022 7.821 42.2092 7.857 42.4072 7.929C42.6232 7.929 42.8752 8.082 43.1632 8.388C43.4512 8.676 43.7122 8.991 43.9462 9.333C44.1802 9.675 44.3152 9.936 44.3512 10.116C44.3512 10.386 44.2072 10.674 43.9192 10.98C43.6312 11.268 43.3162 11.52 42.9742 11.736C42.6502 11.952 42.4162 12.06 42.2722 12.06C42.2002 12.06 42.1642 12.033 42.1642 11.979C42.1642 11.871 42.2812 11.673 42.5152 11.385C42.6052 11.295 42.7132 11.151 42.8392 10.953C42.9652 10.755 43.0822 10.557 43.1902 10.359C43.2982 10.161 43.3522 10.008 43.3522 9.9C43.0102 9.918 42.5692 10.071 42.0292 10.359C41.5072 10.647 40.9582 11.025 40.3822 11.493C39.8242 11.961 39.2932 12.465 38.7892 13.005C38.2852 13.545 37.8712 14.085 37.5472 14.625C37.2412 15.147 37.0882 15.606 37.0882 16.002C37.0882 16.182 37.1332 16.344 37.2232 16.488C37.3132 16.614 37.4932 16.668 37.7632 16.65C38.0332 16.56 38.3482 16.416 38.7082 16.218C39.0862 16.02 39.4822 15.795 39.8962 15.543L39.3562 16.029C39.3022 16.083 39.2032 16.2 39.0592 16.38C38.9152 16.542 38.8792 16.605 38.9512 16.569C39.3112 16.263 39.7162 15.939 40.1662 15.597C40.6342 15.237 41.1202 14.868 41.6242 14.49C41.3362 14.67 41.0392 14.859 40.7332 15.057C40.4452 15.237 40.1662 15.399 39.8962 15.543L41.3812 14.436C42.1012 13.896 42.7762 13.428 43.4062 13.032C44.0362 12.636 44.6392 12.312 45.2152 12.06C44.7112 12.366 44.1622 12.726 43.5682 13.14C42.9922 13.536 42.4072 13.941 41.8132 14.355C42.4972 13.923 43.1722 13.5 43.8382 13.086C44.5222 12.672 45.1252 12.321 45.6472 12.033C45.9532 11.871 46.1782 11.79 46.3222 11.79C46.4482 11.79 46.5112 11.835 46.5112 11.925C46.5112 11.997 46.4302 12.114 46.2682 12.276C46.1242 12.438 45.8992 12.6 45.5932 12.762C45.2152 12.96 44.7742 13.257 44.2702 13.653C43.7662 14.031 43.2262 14.454 42.6502 14.922C42.0742 15.39 41.5072 15.849 40.9492 16.299C40.4092 16.749 39.9142 17.145 39.4642 17.487C39.2482 17.649 39.0502 17.793 38.8702 17.919C38.6902 18.027 38.5282 18.117 38.3842 18.189ZM47.7195 18.189C47.3235 18.189 46.9005 18.036 46.4505 17.73C46.0005 17.424 45.6135 17.064 45.2895 16.65C44.9835 16.236 44.8305 15.858 44.8305 15.516C44.8305 14.868 45.0195 14.175 45.3975 13.437C45.7935 12.681 46.2975 11.943 46.9095 11.223C47.5395 10.503 48.2055 9.864 48.9075 9.306C49.6095 8.748 50.2845 8.343 50.9325 8.091C51.1125 8.019 51.2745 7.974 51.4185 7.956C51.5625 7.938 51.6705 7.929 51.7425 7.929C51.9585 7.929 52.2105 8.082 52.4985 8.388C52.7865 8.676 53.0475 8.991 53.2815 9.333C53.5155 9.675 53.6505 9.936 53.6865 10.116C53.6865 10.404 53.5155 10.755 53.1735 11.169C52.8495 11.565 52.4175 11.979 51.8775 12.411C51.3375 12.825 50.7525 13.212 50.1225 13.572C49.5105 13.932 48.9165 14.22 48.3405 14.436C47.7645 14.634 47.2695 14.724 46.8555 14.706C46.5675 15.228 46.4235 15.66 46.4235 16.002C46.4235 16.182 46.4685 16.344 46.5585 16.488C46.6485 16.614 46.8285 16.668 47.0985 16.65C47.5305 16.506 48.0705 16.245 48.7185 15.867C49.3665 15.489 50.0595 15.066 50.7975 14.598C51.5535 14.112 52.2915 13.644 53.0115 13.194C53.7495 12.726 54.4065 12.339 54.9825 12.033C55.2885 11.871 55.5135 11.79 55.6575 11.79C55.7835 11.79 55.8465 11.835 55.8465 11.925C55.8465 11.997 55.7655 12.114 55.6035 12.276C55.4595 12.438 55.2345 12.6 54.9285 12.762C54.7665 12.852 54.5865 12.96 54.3885 13.086C54.1905 13.212 53.9835 13.356 53.7675 13.518C53.2635 13.878 52.7235 14.292 52.1475 14.76C51.5895 15.228 51.0225 15.696 50.4465 16.164C49.8885 16.632 49.3665 17.046 48.8805 17.406C48.4125 17.766 48.0255 18.027 47.7195 18.189ZM47.4225 13.815C47.9625 13.617 48.5385 13.338 49.1505 12.978C49.7625 12.618 50.3385 12.24 50.8785 11.844C51.4185 11.43 51.8505 11.061 52.1745 10.737L52.3095 10.602C52.3095 10.566 52.2015 10.629 51.9855 10.791L49.7175 12.465C49.6995 12.483 49.6725 12.492 49.6365 12.492C49.6185 12.492 49.6275 12.474 49.6635 12.438C49.6995 12.384 49.7625 12.33 49.8525 12.276C50.2125 12.024 50.5815 11.745 50.9595 11.439C51.3375 11.115 51.6975 10.809 52.0395 10.521C52.4715 10.179 52.6875 9.972 52.6875 9.9C52.2735 9.9 51.7425 10.098 51.0945 10.494C50.4465 10.89 49.7895 11.385 49.1235 11.979C48.4755 12.573 47.9085 13.185 47.4225 13.815Z" fill="black"/>
</svg>
