<svg width="82" height="27" viewBox="0 0 82 27" fill="none" xmlns="http://www.w3.org/2000/svg">
<path d="M7.128 1.638C7.776 1.494 8.442 1.386 9.126 1.314C9.828 1.224 10.539 1.17 11.259 1.152C10.521 1.17 9.792 1.224 9.072 1.314C8.37 1.404 7.722 1.512 7.128 1.638ZM16.281 1.611C15.651 1.485 15.012 1.386 14.364 1.314C13.734 1.224 13.113 1.17 12.501 1.152C13.167 1.17 13.815 1.215 14.445 1.287C15.093 1.359 15.705 1.467 16.281 1.611ZM5.94 18.27C5.508 18.234 5.094 18.018 4.698 17.622C4.302 17.226 4.104 16.731 4.104 16.137C4.104 15.687 4.221 15.192 4.455 14.652C4.689 14.094 4.977 13.536 5.319 12.978C5.679 12.402 6.039 11.88 6.399 11.412C6.201 11.412 5.877 11.439 5.427 11.493C4.977 11.547 4.536 11.601 4.104 11.655C3.69 11.691 3.411 11.718 3.267 11.736C3.231 11.736 3.195 11.745 3.159 11.763C3.141 11.763 3.114 11.763 3.078 11.763C2.862 11.763 2.754 11.7 2.754 11.574C2.754 11.448 2.88 11.304 3.132 11.142C3.402 10.962 3.708 10.845 4.05 10.791L7.344 10.359C7.65 9.963 8.082 9.45 8.64 8.82C9.216 8.19 9.855 7.515 10.557 6.795C11.259 6.057 11.97 5.337 12.69 4.635C13.428 3.933 14.121 3.312 14.769 2.772C14.697 2.844 14.535 2.97 14.283 3.15C14.031 3.312 13.779 3.501 13.527 3.717C13.599 3.627 13.77 3.465 14.04 3.231C14.328 2.997 14.562 2.808 14.742 2.664C13.77 2.664 12.708 2.7 11.556 2.772C10.422 2.826 9.315 2.979 8.235 3.231C8.055 3.267 7.749 3.357 7.317 3.501C6.885 3.645 6.39 3.843 5.832 4.095C5.292 4.329 4.752 4.599 4.212 4.905C3.672 5.193 3.204 5.517 2.808 5.877C2.43 6.237 2.187 6.606 2.079 6.984C2.151 7.128 2.187 7.263 2.187 7.389C2.187 7.641 2.07 7.767 1.836 7.767C1.62 7.767 1.377 7.641 1.107 7.389C0.855 7.119 0.729 6.759 0.729 6.309C0.729 6.075 0.765 5.85 0.837 5.634C1.035 5.04 1.359 4.527 1.809 4.095L1.755 4.122C1.683 4.158 1.656 4.167 1.674 4.149C1.71 4.131 1.764 4.095 1.836 4.041L1.809 4.095C2.619 3.645 3.501 3.204 4.455 2.772C5.427 2.34 6.516 1.98 7.722 1.692C8.928 1.404 10.278 1.26 11.772 1.26C12.456 1.26 13.176 1.296 13.932 1.368C14.688 1.44 15.48 1.557 16.308 1.719C16.398 1.737 16.515 1.755 16.659 1.773C16.821 1.791 16.929 1.8 16.983 1.8H17.01C17.01 1.782 16.803 1.728 16.389 1.638C16.335 1.638 16.299 1.629 16.281 1.611C16.515 1.467 16.704 1.368 16.848 1.314C16.992 1.26 17.127 1.233 17.253 1.233C17.379 1.233 17.595 1.251 17.901 1.287C18.225 1.323 18.531 1.395 18.819 1.503C19.107 1.611 19.26 1.773 19.278 1.989C19.692 2.025 20.115 2.052 20.547 2.07C20.997 2.088 21.447 2.097 21.897 2.097C22.635 2.097 23.355 2.07 24.057 2.016C24.777 1.962 25.425 1.899 26.001 1.827C25.947 2.115 25.776 2.394 25.488 2.664C25.2 2.916 24.732 3.132 24.084 3.312C23.436 3.474 22.554 3.555 21.438 3.555C20.862 3.555 20.205 3.528 19.467 3.474C19.269 3.456 18.999 3.429 18.657 3.393C18.315 3.339 18.045 3.321 17.847 3.339C17.235 3.771 16.551 4.284 15.795 4.878C15.039 5.454 14.274 6.066 13.5 6.714C12.726 7.344 12.006 7.965 11.34 8.577C10.674 9.171 10.134 9.702 9.72 10.17C10.368 10.062 11.16 9.954 12.096 9.846C13.05 9.738 14.013 9.585 14.985 9.387H15.012C15.102 9.387 15.192 9.423 15.282 9.495C15.39 9.567 15.462 9.603 15.498 9.603C15.642 9.603 15.759 9.702 15.849 9.9C15.939 10.098 15.984 10.242 15.984 10.332C15.984 10.404 15.849 10.566 15.579 10.818C15.327 11.052 15.003 11.331 14.607 11.655C14.211 11.979 13.806 12.294 13.392 12.6C12.996 12.906 12.645 13.167 12.339 13.383C12.051 13.581 11.889 13.68 11.853 13.68C11.853 13.59 11.916 13.473 12.042 13.329C12.168 13.167 12.33 12.978 12.528 12.762C12.978 12.258 13.338 11.835 13.608 11.493C13.878 11.133 14.04 10.908 14.094 10.818C13.896 11.034 13.662 11.313 13.392 11.655C13.14 11.979 12.843 12.312 12.501 12.654C12.717 12.402 12.924 12.132 13.122 11.844C13.32 11.556 13.482 11.313 13.608 11.115C13.734 10.917 13.788 10.818 13.77 10.818C13.5 10.836 13.104 10.863 12.582 10.899C12.078 10.917 11.556 10.944 11.016 10.98C10.476 11.016 10.008 11.052 9.612 11.088C9.216 11.124 8.982 11.142 8.91 11.142C8.982 11.16 9.063 11.169 9.153 11.169C9.261 11.169 9.378 11.169 9.504 11.169C9.594 11.169 9.702 11.169 9.828 11.169C9.972 11.169 10.125 11.16 10.287 11.142C9.945 11.214 9.693 11.259 9.531 11.277C9.387 11.277 9.135 11.295 8.775 11.331C7.911 12.321 7.29 13.203 6.912 13.977C6.552 14.751 6.327 15.381 6.237 15.867C6.165 16.353 6.129 16.677 6.129 16.839C6.129 17.127 6.228 17.379 6.426 17.595C6.642 17.793 6.75 17.955 6.75 18.081C6.75 18.135 6.687 18.18 6.561 18.216C6.453 18.252 6.246 18.27 5.94 18.27ZM6.885 1.692C6.939 1.692 7.011 1.674 7.101 1.638H7.128C7.128 1.638 7.119 1.638 7.101 1.638C7.011 1.674 6.948 1.692 6.912 1.692H6.885ZM5.67 2.043C5.868 1.971 6.066 1.908 6.264 1.854C6.48 1.8 6.687 1.746 6.885 1.692L5.67 2.043ZM1.836 4.041C2.34 3.573 2.934 3.177 3.618 2.853C4.302 2.529 4.986 2.259 5.67 2.043C5.022 2.259 4.401 2.529 3.807 2.853C3.231 3.159 2.682 3.492 2.16 3.852L1.836 4.041ZM21.7856 6.93C21.5516 6.822 21.3086 6.615 21.0566 6.309C20.8046 6.003 20.6786 5.742 20.6786 5.526C20.6786 5.346 20.7596 5.256 20.9216 5.256C21.0116 5.256 21.1196 5.274 21.2456 5.31C21.3716 5.328 21.4976 5.337 21.6236 5.337C21.7856 5.337 21.9656 5.283 22.1636 5.175C22.3616 5.049 22.5596 4.986 22.7576 4.986C23.0096 4.986 23.2076 5.157 23.3516 5.499C23.4056 5.589 23.3606 5.715 23.2166 5.877C23.0726 6.039 22.9016 6.192 22.7036 6.336C22.5236 6.48 22.3706 6.588 22.2446 6.66C22.3346 6.66 22.4786 6.597 22.6766 6.471C22.8746 6.327 23.0366 6.192 23.1626 6.066C22.9286 6.354 22.6586 6.579 22.3526 6.741C22.0466 6.885 21.8576 6.948 21.7856 6.93ZM15.9266 17.919C15.6026 17.631 15.3776 17.397 15.2516 17.217C15.1436 17.019 15.0896 16.839 15.0896 16.677C15.0896 16.551 15.1076 16.425 15.1436 16.299C15.1976 16.173 15.2426 16.038 15.2786 15.894C15.4766 15.228 15.8006 14.508 16.2506 13.734C16.7006 12.96 17.1866 12.204 17.7086 11.466C18.2486 10.71 18.7256 10.044 19.1396 9.468C19.1036 9.432 19.0856 9.324 19.0856 9.144C19.0856 8.892 19.1306 8.613 19.2206 8.307C19.3286 7.983 19.4726 7.857 19.6526 7.929C19.8686 7.983 20.1206 8.091 20.4086 8.253C20.7146 8.415 20.9846 8.604 21.2186 8.82C21.4526 9.036 21.5696 9.27 21.5696 9.522C21.5696 9.576 21.5516 9.657 21.5156 9.765H21.4886C21.0206 10.269 20.5616 10.827 20.1116 11.439C19.6616 12.051 19.2656 12.627 18.9236 13.167C18.5996 13.689 18.3746 14.085 18.2486 14.355C18.3566 14.301 18.4736 14.229 18.5996 14.139C18.7256 14.049 18.8606 13.941 19.0046 13.815C18.9146 13.869 18.8336 13.905 18.7616 13.923C18.7076 13.941 18.6986 13.941 18.7346 13.923C19.2026 13.545 19.7426 13.158 20.3546 12.762C20.9846 12.366 21.6236 12.006 22.2716 11.682C22.9196 11.34 23.5316 11.061 24.1076 10.845H24.1616C24.1976 10.845 24.1706 10.872 24.0806 10.926C24.0086 10.962 23.9096 11.007 23.7836 11.061C23.6576 11.115 23.4866 11.205 23.2706 11.331C23.0546 11.439 22.8116 11.574 22.5416 11.736C22.7936 11.628 23.0546 11.502 23.3246 11.358C23.5946 11.214 23.8736 11.097 24.1616 11.007C24.2516 10.971 24.3326 10.944 24.4046 10.926C24.4946 10.908 24.5576 10.899 24.5936 10.899C24.7196 10.899 24.7826 10.944 24.7826 11.034C24.7826 11.16 24.6566 11.34 24.4046 11.574C24.1526 11.808 23.8286 12.033 23.4326 12.249C23.1986 12.375 22.8296 12.609 22.3256 12.951C21.8396 13.293 21.2816 13.698 20.6516 14.166C20.0216 14.616 19.3826 15.084 18.7346 15.57C18.1046 16.056 17.5376 16.506 17.0336 16.92C16.5296 17.334 16.1606 17.667 15.9266 17.919ZM19.0046 13.815C19.0946 13.779 19.1846 13.734 19.2746 13.68C19.3826 13.608 19.4546 13.563 19.4906 13.545C19.8326 13.311 20.2826 13.041 20.8406 12.735C21.4166 12.411 21.9836 12.078 22.5416 11.736C21.6416 12.168 20.9306 12.546 20.4086 12.87C19.8866 13.194 19.4186 13.509 19.0046 13.815ZM23.1728 18.729C22.6688 18.315 22.2368 17.928 21.8768 17.568C21.5348 17.208 21.3638 16.857 21.3638 16.515C21.3638 16.425 21.3728 16.353 21.3908 16.299C21.5708 15.669 21.8948 14.922 22.3628 14.058C22.8488 13.194 23.4158 12.267 24.0638 11.277C24.7298 10.269 25.4318 9.261 26.1698 8.253C26.9078 7.227 27.6278 6.255 28.3298 5.337C29.0498 4.401 29.7068 3.573 30.3008 2.853C30.8948 2.115 31.3718 1.539 31.7318 1.125C32.0918 0.711 32.2808 0.504 32.2988 0.504C32.4788 0.557999 32.7488 0.737999 33.1088 1.044C33.4688 1.332 33.7118 1.629 33.8378 1.935C33.8738 1.971 33.8918 2.007 33.8918 2.043C33.9098 2.259 34.0358 2.457 34.2698 2.637C34.5038 2.817 34.6208 3.015 34.6208 3.231C34.6208 3.843 34.3868 4.509 33.9188 5.229C33.4508 5.931 32.8388 6.651 32.0828 7.389C31.3268 8.127 30.5078 8.856 29.6258 9.576C28.7438 10.278 27.8708 10.935 27.0068 11.547C26.1608 12.141 25.4228 12.663 24.7928 13.113C24.2528 13.869 23.9288 14.544 23.8208 15.138C23.7308 15.732 23.6948 16.173 23.7128 16.461C24.5948 15.867 25.4318 15.201 26.2238 14.463C26.4218 14.301 26.7098 14.076 27.0878 13.788C27.4838 13.482 27.8888 13.185 28.3028 12.897C28.7168 12.609 29.0318 12.402 29.2478 12.276C29.4458 12.168 29.5988 12.078 29.7068 12.006C29.8328 11.934 29.8238 11.952 29.6798 12.06C29.2478 12.402 28.6718 12.834 27.9518 13.356C28.9778 12.672 30.0038 12.168 31.0298 11.844C31.2278 11.772 31.3808 11.736 31.4888 11.736C31.6688 11.736 31.6598 11.835 31.4618 12.033C31.2638 12.213 31.0298 12.402 30.7598 12.6C29.5178 13.5 28.2398 14.445 26.9258 15.435C25.6118 16.425 24.3608 17.523 23.1728 18.729ZM25.8728 11.628C26.5568 11.124 27.2048 10.584 27.8168 10.008C28.4288 9.414 29.0408 8.838 29.6528 8.28C30.7148 7.272 31.5698 6.291 32.2178 5.337C32.8838 4.383 33.3068 3.537 33.4868 2.799C33.1628 3.159 32.7218 3.654 32.1638 4.284C31.6238 4.896 31.0208 5.589 30.3548 6.363C29.6888 7.119 29.0048 7.902 28.3028 8.712C27.6188 9.522 26.9708 10.296 26.3588 11.034C26.3048 11.088 26.2328 11.169 26.1428 11.277C26.0708 11.367 25.9808 11.484 25.8728 11.628ZM24.1718 16.731C24.3698 16.533 24.6218 16.299 24.9278 16.029C25.2338 15.759 25.5848 15.426 25.9808 15.03C26.1608 14.85 26.4308 14.598 26.7908 14.274C27.1688 13.95 27.5558 13.644 27.9518 13.356C27.2318 13.86 26.6018 14.328 26.0618 14.76C25.5218 15.192 25.0268 15.597 24.5768 15.975L24.1988 16.434C24.0908 16.56 24.0458 16.659 24.0638 16.731C24.0818 16.803 24.1178 16.803 24.1718 16.731ZM36.2612 6.93C36.0272 6.822 35.7842 6.615 35.5322 6.309C35.2802 6.003 35.1542 5.742 35.1542 5.526C35.1542 5.346 35.2352 5.256 35.3972 5.256C35.4872 5.256 35.5952 5.274 35.7212 5.31C35.8472 5.328 35.9732 5.337 36.0992 5.337C36.2612 5.337 36.4412 5.283 36.6392 5.175C36.8372 5.049 37.0352 4.986 37.2332 4.986C37.4852 4.986 37.6832 5.157 37.8272 5.499C37.8812 5.589 37.8362 5.715 37.6922 5.877C37.5482 6.039 37.3772 6.192 37.1792 6.336C36.9992 6.48 36.8462 6.588 36.7202 6.66C36.8102 6.66 36.9542 6.597 37.1522 6.471C37.3502 6.327 37.5122 6.192 37.6382 6.066C37.4042 6.354 37.1342 6.579 36.8282 6.741C36.5222 6.885 36.3332 6.948 36.2612 6.93ZM30.4022 17.919C30.0782 17.631 29.8532 17.397 29.7272 17.217C29.6192 17.019 29.5652 16.839 29.5652 16.677C29.5652 16.551 29.5832 16.425 29.6192 16.299C29.6732 16.173 29.7182 16.038 29.7542 15.894C29.9522 15.228 30.2762 14.508 30.7262 13.734C31.1762 12.96 31.6622 12.204 32.1842 11.466C32.7242 10.71 33.2012 10.044 33.6152 9.468C33.5792 9.432 33.5612 9.324 33.5612 9.144C33.5612 8.892 33.6062 8.613 33.6962 8.307C33.8042 7.983 33.9482 7.857 34.1282 7.929C34.3442 7.983 34.5962 8.091 34.8842 8.253C35.1902 8.415 35.4602 8.604 35.6942 8.82C35.9282 9.036 36.0452 9.27 36.0452 9.522C36.0452 9.576 36.0272 9.657 35.9912 9.765H35.9642C35.4962 10.269 35.0372 10.827 34.5872 11.439C34.1372 12.051 33.7412 12.627 33.3992 13.167C33.0752 13.689 32.8502 14.085 32.7242 14.355C32.8322 14.301 32.9492 14.229 33.0752 14.139C33.2012 14.049 33.3362 13.941 33.4802 13.815C33.3902 13.869 33.3092 13.905 33.2372 13.923C33.1832 13.941 33.1742 13.941 33.2102 13.923C33.6782 13.545 34.2182 13.158 34.8302 12.762C35.4602 12.366 36.0992 12.006 36.7472 11.682C37.3952 11.34 38.0072 11.061 38.5832 10.845H38.6372C38.6732 10.845 38.6462 10.872 38.5562 10.926C38.4842 10.962 38.3852 11.007 38.2592 11.061C38.1332 11.115 37.9622 11.205 37.7462 11.331C37.5302 11.439 37.2872 11.574 37.0172 11.736C37.2692 11.628 37.5302 11.502 37.8002 11.358C38.0702 11.214 38.3492 11.097 38.6372 11.007C38.7272 10.971 38.8082 10.944 38.8802 10.926C38.9702 10.908 39.0332 10.899 39.0692 10.899C39.1952 10.899 39.2582 10.944 39.2582 11.034C39.2582 11.16 39.1322 11.34 38.8802 11.574C38.6282 11.808 38.3042 12.033 37.9082 12.249C37.6742 12.375 37.3052 12.609 36.8012 12.951C36.3152 13.293 35.7572 13.698 35.1272 14.166C34.4972 14.616 33.8582 15.084 33.2102 15.57C32.5802 16.056 32.0132 16.506 31.5092 16.92C31.0052 17.334 30.6362 17.667 30.4022 17.919ZM33.4802 13.815C33.5702 13.779 33.6602 13.734 33.7502 13.68C33.8582 13.608 33.9302 13.563 33.9662 13.545C34.3082 13.311 34.7582 13.041 35.3162 12.735C35.8922 12.411 36.4592 12.078 37.0172 11.736C36.1172 12.168 35.4062 12.546 34.8842 12.87C34.3622 13.194 33.8942 13.509 33.4802 13.815ZM33.8413 26.316C33.7153 26.316 33.5713 26.271 33.4093 26.181C33.2293 26.091 33.0853 25.974 32.9773 25.83C32.6173 25.326 32.4373 24.678 32.4373 23.886C32.4373 23.382 32.6263 22.689 33.0043 21.807C33.3643 20.943 33.8503 19.971 34.4623 18.891C35.0743 17.829 35.7493 16.74 36.4873 15.624C37.2253 14.508 37.9543 13.455 38.6743 12.465C39.4123 11.475 40.0873 10.629 40.6993 9.927C40.3393 10.269 39.9613 10.665 39.5653 11.115C39.1873 11.565 38.8363 11.979 38.5123 12.357C38.2063 12.735 37.9903 13.005 37.8643 13.167C37.8463 13.185 37.8373 13.176 37.8373 13.14C37.8553 13.086 37.9003 12.996 37.9723 12.87C37.9723 12.852 38.0713 12.726 38.2693 12.492C38.4673 12.24 38.7103 11.934 38.9983 11.574C39.3043 11.214 39.6103 10.854 39.9163 10.494C40.2403 10.134 40.5373 9.828 40.8073 9.576C40.7533 9.486 40.6993 9.396 40.6453 9.306C40.6093 9.216 40.5913 9.135 40.5913 9.063C40.5913 8.901 40.7173 8.82 40.9693 8.82C41.0953 8.82 41.2033 8.829 41.2933 8.847C41.5453 8.883 41.8243 9.036 42.1303 9.306C42.4543 9.576 42.6343 9.81 42.6703 10.008C42.5623 10.17 42.4273 10.332 42.2653 10.494C42.1213 10.656 41.9593 10.836 41.7793 11.034C42.1573 10.782 42.5893 10.476 43.0753 10.116C43.5613 9.756 44.0563 9.396 44.5603 9.036C45.0823 8.676 45.5503 8.379 45.9643 8.145C46.3963 7.893 46.7293 7.767 46.9633 7.767C47.4673 7.767 47.8183 7.911 48.0163 8.199C48.2143 8.487 48.3133 8.829 48.3133 9.225C48.3133 9.513 48.2683 9.81 48.1783 10.116C48.0883 10.422 47.9713 10.683 47.8273 10.899C47.7913 10.953 47.6653 11.151 47.4493 11.493C47.2513 11.817 47.0173 12.159 46.7473 12.519C46.4953 12.861 46.2793 13.104 46.0993 13.248C46.4053 12.762 46.6573 12.33 46.8553 11.952C47.0533 11.556 47.1073 11.358 47.0173 11.358C46.5673 12.186 46.1893 12.834 45.8833 13.302C45.5953 13.77 45.3523 14.121 45.1543 14.355C44.9743 14.589 44.8123 14.805 44.6683 15.003C43.9483 15.939 43.1563 16.749 42.2923 17.433C41.4283 18.117 40.5553 18.459 39.6733 18.459C39.2773 18.459 38.9083 18.387 38.5663 18.243C38.2423 18.099 37.9633 17.973 37.7293 17.865C37.5133 17.757 37.3513 17.64 37.2433 17.514C36.8653 18.126 36.4693 18.801 36.0553 19.539C35.6413 20.277 35.2543 21.006 34.8943 21.726C34.5343 22.446 34.2373 23.094 34.0033 23.67C33.7693 24.246 33.6433 24.678 33.6253 24.966C33.6253 25.272 33.7243 25.542 33.9223 25.776C34.0483 25.92 34.1113 26.037 34.1113 26.127C34.1113 26.253 34.0213 26.316 33.8413 26.316ZM38.9173 17.514C39.1153 17.424 39.4123 17.244 39.8083 16.974C40.2223 16.704 40.5823 16.425 40.8883 16.137C41.1223 15.921 41.4373 15.615 41.8333 15.219C42.2293 14.805 42.6523 14.346 43.1023 13.842C43.5523 13.32 43.9843 12.78 44.3983 12.222C44.8123 11.646 45.1453 11.079 45.3973 10.521C45.3253 10.647 45.2083 10.809 45.0463 11.007C44.8843 11.205 44.7133 11.412 44.5333 11.628C44.7133 11.394 44.8663 11.178 44.9923 10.98C45.1183 10.764 45.2173 10.593 45.2893 10.467C45.4513 10.179 45.5773 9.918 45.6673 9.684C45.7753 9.45 45.8203 9.27 45.8023 9.144C45.7303 9.18 45.6403 9.225 45.5323 9.279C45.4423 9.333 45.3433 9.405 45.2353 9.495C44.5333 9.981 43.7593 10.557 42.9133 11.223C42.0853 11.889 41.2753 12.6 40.4833 13.356C39.7093 14.094 39.0433 14.832 38.4853 15.57C38.3773 15.696 38.2513 15.876 38.1073 16.11C37.9633 16.344 37.7923 16.614 37.5943 16.92C37.7743 17.136 37.9633 17.244 38.1613 17.244C39.0073 17.244 39.9613 16.749 41.0233 15.759L41.0503 15.732L41.1583 15.624C41.1583 15.624 41.1493 15.633 41.1313 15.651C41.1313 15.651 41.1043 15.678 41.0503 15.732C41.0323 15.732 41.0233 15.741 41.0233 15.759C40.5913 16.155 40.1683 16.488 39.7543 16.758C39.3403 17.028 38.9173 17.226 38.4853 17.352C38.4313 17.37 38.4043 17.397 38.4043 17.433C38.4043 17.469 38.4583 17.505 38.5663 17.541C38.6923 17.577 38.8093 17.568 38.9173 17.514ZM44.3983 11.79L44.4253 11.763L44.4523 11.736V11.709H44.4793L44.5063 11.682V11.655H44.5333V11.628C44.5333 11.628 44.5333 11.637 44.5333 11.655C44.5333 11.655 44.5243 11.655 44.5063 11.655C44.5063 11.655 44.5063 11.664 44.5063 11.682C44.4883 11.682 44.4793 11.691 44.4793 11.709C44.4793 11.709 44.4703 11.709 44.4523 11.709C44.4523 11.727 44.4523 11.736 44.4523 11.736C44.4343 11.754 44.4253 11.763 44.4253 11.763C44.4073 11.781 44.3983 11.79 44.3983 11.79ZM41.3203 15.462C41.4643 15.318 41.5993 15.156 41.7253 14.976C41.8693 14.778 42.0133 14.598 42.1573 14.436C42.3553 14.22 42.6433 13.905 43.0213 13.491C43.3993 13.059 43.7683 12.618 44.1283 12.168C43.7323 12.672 43.2913 13.221 42.8053 13.815C42.3193 14.391 41.8243 14.94 41.3203 15.462ZM44.5464 26.316C44.4204 26.316 44.2764 26.271 44.1144 26.181C43.9344 26.091 43.7904 25.974 43.6824 25.83C43.3224 25.326 43.1424 24.678 43.1424 23.886C43.1424 23.382 43.3314 22.689 43.7094 21.807C44.0694 20.943 44.5554 19.971 45.1674 18.891C45.7794 17.829 46.4544 16.74 47.1924 15.624C47.9304 14.508 48.6594 13.455 49.3794 12.465C50.1174 11.475 50.7924 10.629 51.4044 9.927C51.0444 10.269 50.6664 10.665 50.2704 11.115C49.8924 11.565 49.5414 11.979 49.2174 12.357C48.9114 12.735 48.6954 13.005 48.5694 13.167C48.5514 13.185 48.5424 13.176 48.5424 13.14C48.5604 13.086 48.6054 12.996 48.6774 12.87C48.6774 12.852 48.7764 12.726 48.9744 12.492C49.1724 12.24 49.4154 11.934 49.7034 11.574C50.0094 11.214 50.3154 10.854 50.6214 10.494C50.9454 10.134 51.2424 9.828 51.5124 9.576C51.4584 9.486 51.4044 9.396 51.3504 9.306C51.3144 9.216 51.2964 9.135 51.2964 9.063C51.2964 8.901 51.4224 8.82 51.6744 8.82C51.8004 8.82 51.9084 8.829 51.9984 8.847C52.2504 8.883 52.5294 9.036 52.8354 9.306C53.1594 9.576 53.3394 9.81 53.3754 10.008C53.2674 10.17 53.1324 10.332 52.9704 10.494C52.8264 10.656 52.6644 10.836 52.4844 11.034C52.8624 10.782 53.2944 10.476 53.7804 10.116C54.2664 9.756 54.7614 9.396 55.2654 9.036C55.7874 8.676 56.2554 8.379 56.6694 8.145C57.1014 7.893 57.4344 7.767 57.6684 7.767C58.1724 7.767 58.5234 7.911 58.7214 8.199C58.9194 8.487 59.0184 8.829 59.0184 9.225C59.0184 9.513 58.9734 9.81 58.8834 10.116C58.7934 10.422 58.6764 10.683 58.5324 10.899C58.4964 10.953 58.3704 11.151 58.1544 11.493C57.9564 11.817 57.7224 12.159 57.4524 12.519C57.2004 12.861 56.9844 13.104 56.8044 13.248C57.1104 12.762 57.3624 12.33 57.5604 11.952C57.7584 11.556 57.8124 11.358 57.7224 11.358C57.2724 12.186 56.8944 12.834 56.5884 13.302C56.3004 13.77 56.0574 14.121 55.8594 14.355C55.6794 14.589 55.5174 14.805 55.3734 15.003C54.6534 15.939 53.8614 16.749 52.9974 17.433C52.1334 18.117 51.2604 18.459 50.3784 18.459C49.9824 18.459 49.6134 18.387 49.2714 18.243C48.9474 18.099 48.6684 17.973 48.4344 17.865C48.2184 17.757 48.0564 17.64 47.9484 17.514C47.5704 18.126 47.1744 18.801 46.7604 19.539C46.3464 20.277 45.9594 21.006 45.5994 21.726C45.2394 22.446 44.9424 23.094 44.7084 23.67C44.4744 24.246 44.3484 24.678 44.3304 24.966C44.3304 25.272 44.4294 25.542 44.6274 25.776C44.7534 25.92 44.8164 26.037 44.8164 26.127C44.8164 26.253 44.7264 26.316 44.5464 26.316ZM49.6224 17.514C49.8204 17.424 50.1174 17.244 50.5134 16.974C50.9274 16.704 51.2874 16.425 51.5934 16.137C51.8274 15.921 52.1424 15.615 52.5384 15.219C52.9344 14.805 53.3574 14.346 53.8074 13.842C54.2574 13.32 54.6894 12.78 55.1034 12.222C55.5174 11.646 55.8504 11.079 56.1024 10.521C56.0304 10.647 55.9134 10.809 55.7514 11.007C55.5894 11.205 55.4184 11.412 55.2384 11.628C55.4184 11.394 55.5714 11.178 55.6974 10.98C55.8234 10.764 55.9224 10.593 55.9944 10.467C56.1564 10.179 56.2824 9.918 56.3724 9.684C56.4804 9.45 56.5254 9.27 56.5074 9.144C56.4354 9.18 56.3454 9.225 56.2374 9.279C56.1474 9.333 56.0484 9.405 55.9404 9.495C55.2384 9.981 54.4644 10.557 53.6184 11.223C52.7904 11.889 51.9804 12.6 51.1884 13.356C50.4144 14.094 49.7484 14.832 49.1904 15.57C49.0824 15.696 48.9564 15.876 48.8124 16.11C48.6684 16.344 48.4974 16.614 48.2994 16.92C48.4794 17.136 48.6684 17.244 48.8664 17.244C49.7124 17.244 50.6664 16.749 51.7284 15.759L51.7554 15.732L51.8634 15.624C51.8634 15.624 51.8544 15.633 51.8364 15.651C51.8364 15.651 51.8094 15.678 51.7554 15.732C51.7374 15.732 51.7284 15.741 51.7284 15.759C51.2964 16.155 50.8734 16.488 50.4594 16.758C50.0454 17.028 49.6224 17.226 49.1904 17.352C49.1364 17.37 49.1094 17.397 49.1094 17.433C49.1094 17.469 49.1634 17.505 49.2714 17.541C49.3974 17.577 49.5144 17.568 49.6224 17.514ZM55.1034 11.79L55.1304 11.763L55.1574 11.736V11.709H55.1844L55.2114 11.682V11.655H55.2384V11.628C55.2384 11.628 55.2384 11.637 55.2384 11.655C55.2384 11.655 55.2294 11.655 55.2114 11.655C55.2114 11.655 55.2114 11.664 55.2114 11.682C55.1934 11.682 55.1844 11.691 55.1844 11.709C55.1844 11.709 55.1754 11.709 55.1574 11.709C55.1574 11.727 55.1574 11.736 55.1574 11.736C55.1394 11.754 55.1304 11.763 55.1304 11.763C55.1124 11.781 55.1034 11.79 55.1034 11.79ZM52.0254 15.462C52.1694 15.318 52.3044 15.156 52.4304 14.976C52.5744 14.778 52.7184 14.598 52.8624 14.436C53.0604 14.22 53.3484 13.905 53.7264 13.491C54.1044 13.059 54.4734 12.618 54.8334 12.168C54.4374 12.672 53.9964 13.221 53.5104 13.815C53.0244 14.391 52.5294 14.94 52.0254 15.462ZM60.5975 18.216C60.3455 18.216 60.0755 18.162 59.7875 18.054C59.5175 17.964 59.2745 17.82 59.0585 17.622C58.8425 17.424 58.6085 17.127 58.3565 16.731C58.1225 16.317 58.0055 15.912 58.0055 15.516C58.0055 15.354 58.0325 15.21 58.0865 15.084C58.6625 13.536 59.5985 12.123 60.8945 10.845C62.1905 9.549 63.7745 8.46 65.6465 7.578C65.8985 7.578 66.1595 7.677 66.4295 7.875C66.6995 8.055 66.9245 8.28 67.1045 8.55L67.5905 8.712C67.5725 8.514 67.5095 8.397 67.4015 8.361C67.2935 8.307 67.2395 8.235 67.2395 8.145C67.2755 7.983 67.3925 7.893 67.5905 7.875C67.7885 7.839 67.9325 7.821 68.0225 7.821C68.3105 7.821 68.5445 7.956 68.7245 8.226C68.9225 8.478 69.0305 8.757 69.0485 9.063C69.4805 9.117 69.9305 9.153 70.3985 9.171C70.8665 9.189 71.2715 9.207 71.6135 9.225C71.9735 9.225 72.1715 9.225 72.2075 9.225H72.2885C72.3425 9.225 72.3695 9.261 72.3695 9.333C72.3695 9.459 72.2975 9.567 72.1535 9.657C71.9735 9.801 71.5505 9.9 70.8845 9.954C70.2365 9.99 69.5525 10.008 68.8325 10.008C68.7425 10.278 68.6075 10.566 68.4275 10.872C68.2475 11.178 68.0405 11.493 67.8065 11.817C67.6445 12.051 67.4015 12.366 67.0775 12.762C66.7535 13.14 66.4205 13.527 66.0785 13.923C65.7365 14.319 65.4485 14.652 65.2145 14.922C65.3765 14.778 65.6375 14.526 65.9975 14.166C66.3755 13.788 66.6815 13.455 66.9155 13.167C67.0055 13.059 67.1405 12.888 67.3205 12.654C67.5005 12.402 67.6715 12.168 67.8335 11.952C68.0135 11.718 68.1215 11.565 68.1575 11.493C67.9235 11.979 67.6265 12.447 67.2665 12.897C66.9065 13.347 66.5465 13.752 66.1865 14.112C65.8265 14.472 65.5205 14.769 65.2685 15.003C65.0165 15.219 64.8725 15.345 64.8365 15.381C64.0805 16.173 63.3155 16.848 62.5415 17.406C61.7855 17.946 61.1375 18.216 60.5975 18.216ZM59.7335 17.298C59.8235 17.298 59.9315 17.271 60.0575 17.217C60.2555 17.109 60.5075 16.938 60.8135 16.704C61.1375 16.47 61.4705 16.227 61.8125 15.975C62.1185 15.723 62.4605 15.417 62.8385 15.057C63.2165 14.679 63.6305 14.238 64.0805 13.734C64.4765 13.284 64.8995 12.798 65.3495 12.276C65.7995 11.736 66.2405 11.178 66.6725 10.602L66.2675 10.98C66.3935 10.854 66.5465 10.683 66.7265 10.467C66.9245 10.233 67.0865 10.053 67.2125 9.927C66.6545 9.891 66.3215 9.864 66.2135 9.846C66.1955 9.882 66.1685 9.9 66.1325 9.9C66.0965 9.9 66.0785 9.837 66.0785 9.711C66.0785 9.675 66.0785 9.63 66.0785 9.576C66.0785 9.504 66.0875 9.432 66.1055 9.36C65.9255 9.342 65.7275 9.369 65.5115 9.441C65.2955 9.513 65.0525 9.666 64.7825 9.9C64.4765 10.188 64.0805 10.548 63.5945 10.98C63.1085 11.412 62.6045 11.907 62.0825 12.465C61.5605 13.005 61.0655 13.59 60.5975 14.22C60.1475 14.85 59.7875 15.516 59.5175 16.218C59.4275 16.434 59.3825 16.65 59.3825 16.866C59.3825 17.172 59.5175 17.262 59.7875 17.136C59.6975 17.19 59.6525 17.226 59.6525 17.244C59.6525 17.28 59.6795 17.298 59.7335 17.298ZM59.7875 17.136C60.1295 16.956 60.6695 16.578 61.4075 16.002C62.1635 15.408 62.9285 14.688 63.7025 13.842C63.9545 13.572 64.2425 13.266 64.5665 12.924C64.8905 12.564 65.2055 12.222 65.5115 11.898C65.8175 11.574 66.0515 11.322 66.2135 11.142C65.7995 11.646 65.4125 12.105 65.0525 12.519C64.7105 12.915 64.3775 13.293 64.0535 13.653C63.2975 14.463 62.5235 15.192 61.7315 15.84C60.9575 16.488 60.3095 16.92 59.7875 17.136ZM69.7296 18.702C69.6576 18.702 69.5046 18.63 69.2706 18.486C69.0546 18.36 68.8476 18.198 68.6496 18C68.4516 17.82 68.3526 17.649 68.3526 17.487C68.3526 17.379 68.3796 17.325 68.4336 17.325C68.4696 17.325 68.5236 17.343 68.5956 17.379C68.6856 17.397 68.7846 17.424 68.8926 17.46C68.7846 17.244 68.7126 17.01 68.6766 16.758C68.6766 16.722 68.7756 16.524 68.9736 16.164C69.1716 15.804 69.4146 15.363 69.7026 14.841C70.0086 14.319 70.3056 13.797 70.5936 13.275C70.8996 12.753 71.1516 12.312 71.3496 11.952C71.5656 11.574 71.6736 11.376 71.6736 11.358C71.6736 11.304 71.5566 11.43 71.3226 11.736C71.0886 12.024 70.8186 12.366 70.5126 12.762C70.2246 13.158 69.9996 13.509 69.8376 13.815C70.0716 13.329 70.3236 12.816 70.5936 12.276C70.8636 11.736 71.2326 11.097 71.7006 10.359C72.1866 9.603 72.8346 8.676 73.6446 7.578C73.8966 7.686 74.1756 7.821 74.4816 7.983C74.7876 8.127 75.0486 8.289 75.2646 8.469C75.4806 8.649 75.5886 8.838 75.5886 9.036C75.5886 9.108 75.5616 9.189 75.5076 9.279C74.8596 10.143 74.2746 10.962 73.7526 11.736C73.2306 12.51 72.8076 13.158 72.4836 13.68C72.1596 14.202 71.9616 14.526 71.8896 14.652C72.0336 14.562 72.2226 14.454 72.4566 14.328C72.6906 14.184 72.9516 14.022 73.2396 13.842C73.1676 13.914 73.0956 13.977 73.0236 14.031C72.9516 14.067 72.8976 14.103 72.8616 14.139C72.8076 14.175 72.7356 14.247 72.6456 14.355C72.5736 14.445 72.5736 14.472 72.6456 14.436C72.8976 14.238 73.3296 13.941 73.9416 13.545C74.5536 13.131 75.2196 12.672 75.9396 12.168C76.6776 11.646 77.3256 11.142 77.8836 10.656C77.4336 10.926 76.9206 11.277 76.3446 11.709C76.9566 11.223 77.5326 10.719 78.0726 10.197C78.6306 9.675 78.9996 9.306 79.1796 9.09C79.1616 9.036 79.1526 8.982 79.1526 8.928C79.1526 8.856 79.1526 8.793 79.1526 8.739C79.1526 8.253 79.2966 7.866 79.5846 7.578C79.8726 7.272 80.1066 7.047 80.2866 6.903C80.4666 6.759 80.6196 6.687 80.7456 6.687C80.9616 6.687 81.1326 6.822 81.2586 7.092C81.3846 7.344 81.4476 7.614 81.4476 7.902C81.4476 8.244 81.3846 8.487 81.2586 8.631C81.1686 8.757 80.8806 9.045 80.3946 9.495C79.9266 9.927 79.3416 10.449 78.6396 11.061C77.9556 11.655 77.2356 12.267 76.4796 12.897C75.7416 13.527 75.0396 14.121 74.3736 14.679C73.7256 15.219 73.1946 15.651 72.7806 15.975C72.4926 16.191 72.2226 16.407 71.9706 16.623C71.7186 16.821 71.4846 17.01 71.2686 17.19C71.3226 17.208 71.3766 17.253 71.4306 17.325C71.5026 17.397 71.5386 17.487 71.5386 17.595C71.5386 17.685 71.4306 17.82 71.2146 18C70.9986 18.18 70.7466 18.342 70.4586 18.486C70.1706 18.63 69.9276 18.702 69.7296 18.702ZM75.9936 11.952H76.0206V11.925H76.0476H76.0746V11.898H76.1016V11.871H76.1286L76.1556 11.844C76.1556 11.844 76.1466 11.853 76.1286 11.871C76.1286 11.871 76.1196 11.871 76.1016 11.871C76.1016 11.889 76.1016 11.898 76.1016 11.898C76.1016 11.898 76.0926 11.898 76.0746 11.898C76.0746 11.916 76.0746 11.925 76.0746 11.925C76.0566 11.925 76.0476 11.925 76.0476 11.925C76.0296 11.925 76.0206 11.925 76.0206 11.925C76.0206 11.925 76.0206 11.934 76.0206 11.952C76.0026 11.952 75.9936 11.952 75.9936 11.952ZM73.2396 13.842C73.4196 13.698 73.6356 13.536 73.8876 13.356C74.1396 13.176 74.4366 12.987 74.7786 12.789C74.9046 12.699 75.0756 12.591 75.2916 12.465C75.5076 12.321 75.7326 12.159 75.9666 11.979C75.6426 12.213 75.3366 12.438 75.0486 12.654C74.7786 12.87 74.5446 13.041 74.3466 13.167L73.2396 13.842Z" fill="black"/>
</svg>
