<svg width="97" height="41" viewBox="0 0 97 41" fill="none" xmlns="http://www.w3.org/2000/svg">
<rect width="97" height="41" fill="black"/>
<path d="M16.128 11.638C16.776 11.494 17.442 11.386 18.126 11.314C18.828 11.224 19.539 11.17 20.259 11.152C19.521 11.17 18.792 11.224 18.072 11.314C17.37 11.404 16.722 11.512 16.128 11.638ZM25.281 11.611C24.651 11.485 24.012 11.386 23.364 11.314C22.734 11.224 22.113 11.17 21.501 11.152C22.167 11.17 22.815 11.215 23.445 11.287C24.093 11.359 24.705 11.467 25.281 11.611ZM14.94 28.27C14.508 28.234 14.094 28.018 13.698 27.622C13.302 27.226 13.104 26.731 13.104 26.137C13.104 25.687 13.221 25.192 13.455 24.652C13.689 24.094 13.977 23.536 14.319 22.978C14.679 22.402 15.039 21.88 15.399 21.412C15.201 21.412 14.877 21.439 14.427 21.493C13.977 21.547 13.536 21.601 13.104 21.655C12.69 21.691 12.411 21.718 12.267 21.736C12.231 21.736 12.195 21.745 12.159 21.763C12.141 21.763 12.114 21.763 12.078 21.763C11.862 21.763 11.754 21.7 11.754 21.574C11.754 21.448 11.88 21.304 12.132 21.142C12.402 20.962 12.708 20.845 13.05 20.791L16.344 20.359C16.65 19.963 17.082 19.45 17.64 18.82C18.216 18.19 18.855 17.515 19.557 16.795C20.259 16.057 20.97 15.337 21.69 14.635C22.428 13.933 23.121 13.312 23.769 12.772C23.697 12.844 23.535 12.97 23.283 13.15C23.031 13.312 22.779 13.501 22.527 13.717C22.599 13.627 22.77 13.465 23.04 13.231C23.328 12.997 23.562 12.808 23.742 12.664C22.77 12.664 21.708 12.7 20.556 12.772C19.422 12.826 18.315 12.979 17.235 13.231C17.055 13.267 16.749 13.357 16.317 13.501C15.885 13.645 15.39 13.843 14.832 14.095C14.292 14.329 13.752 14.599 13.212 14.905C12.672 15.193 12.204 15.517 11.808 15.877C11.43 16.237 11.187 16.606 11.079 16.984C11.151 17.128 11.187 17.263 11.187 17.389C11.187 17.641 11.07 17.767 10.836 17.767C10.62 17.767 10.377 17.641 10.107 17.389C9.855 17.119 9.729 16.759 9.729 16.309C9.729 16.075 9.765 15.85 9.837 15.634C10.035 15.04 10.359 14.527 10.809 14.095L10.755 14.122C10.683 14.158 10.656 14.167 10.674 14.149C10.71 14.131 10.764 14.095 10.836 14.041L10.809 14.095C11.619 13.645 12.501 13.204 13.455 12.772C14.427 12.34 15.516 11.98 16.722 11.692C17.928 11.404 19.278 11.26 20.772 11.26C21.456 11.26 22.176 11.296 22.932 11.368C23.688 11.44 24.48 11.557 25.308 11.719C25.398 11.737 25.515 11.755 25.659 11.773C25.821 11.791 25.929 11.8 25.983 11.8H26.01C26.01 11.782 25.803 11.728 25.389 11.638C25.335 11.638 25.299 11.629 25.281 11.611C25.515 11.467 25.704 11.368 25.848 11.314C25.992 11.26 26.127 11.233 26.253 11.233C26.379 11.233 26.595 11.251 26.901 11.287C27.225 11.323 27.531 11.395 27.819 11.503C28.107 11.611 28.26 11.773 28.278 11.989C28.692 12.025 29.115 12.052 29.547 12.07C29.997 12.088 30.447 12.097 30.897 12.097C31.635 12.097 32.355 12.07 33.057 12.016C33.777 11.962 34.425 11.899 35.001 11.827C34.947 12.115 34.776 12.394 34.488 12.664C34.2 12.916 33.732 13.132 33.084 13.312C32.436 13.474 31.554 13.555 30.438 13.555C29.862 13.555 29.205 13.528 28.467 13.474C28.269 13.456 27.999 13.429 27.657 13.393C27.315 13.339 27.045 13.321 26.847 13.339C26.235 13.771 25.551 14.284 24.795 14.878C24.039 15.454 23.274 16.066 22.5 16.714C21.726 17.344 21.006 17.965 20.34 18.577C19.674 19.171 19.134 19.702 18.72 20.17C19.368 20.062 20.16 19.954 21.096 19.846C22.05 19.738 23.013 19.585 23.985 19.387H24.012C24.102 19.387 24.192 19.423 24.282 19.495C24.39 19.567 24.462 19.603 24.498 19.603C24.642 19.603 24.759 19.702 24.849 19.9C24.939 20.098 24.984 20.242 24.984 20.332C24.984 20.404 24.849 20.566 24.579 20.818C24.327 21.052 24.003 21.331 23.607 21.655C23.211 21.979 22.806 22.294 22.392 22.6C21.996 22.906 21.645 23.167 21.339 23.383C21.051 23.581 20.889 23.68 20.853 23.68C20.853 23.59 20.916 23.473 21.042 23.329C21.168 23.167 21.33 22.978 21.528 22.762C21.978 22.258 22.338 21.835 22.608 21.493C22.878 21.133 23.04 20.908 23.094 20.818C22.896 21.034 22.662 21.313 22.392 21.655C22.14 21.979 21.843 22.312 21.501 22.654C21.717 22.402 21.924 22.132 22.122 21.844C22.32 21.556 22.482 21.313 22.608 21.115C22.734 20.917 22.788 20.818 22.77 20.818C22.5 20.836 22.104 20.863 21.582 20.899C21.078 20.917 20.556 20.944 20.016 20.98C19.476 21.016 19.008 21.052 18.612 21.088C18.216 21.124 17.982 21.142 17.91 21.142C17.982 21.16 18.063 21.169 18.153 21.169C18.261 21.169 18.378 21.169 18.504 21.169C18.594 21.169 18.702 21.169 18.828 21.169C18.972 21.169 19.125 21.16 19.287 21.142C18.945 21.214 18.693 21.259 18.531 21.277C18.387 21.277 18.135 21.295 17.775 21.331C16.911 22.321 16.29 23.203 15.912 23.977C15.552 24.751 15.327 25.381 15.237 25.867C15.165 26.353 15.129 26.677 15.129 26.839C15.129 27.127 15.228 27.379 15.426 27.595C15.642 27.793 15.75 27.955 15.75 28.081C15.75 28.135 15.687 28.18 15.561 28.216C15.453 28.252 15.246 28.27 14.94 28.27ZM15.885 11.692C15.939 11.692 16.011 11.674 16.101 11.638H16.128C16.128 11.638 16.119 11.638 16.101 11.638C16.011 11.674 15.948 11.692 15.912 11.692H15.885ZM14.67 12.043C14.868 11.971 15.066 11.908 15.264 11.854C15.48 11.8 15.687 11.746 15.885 11.692L14.67 12.043ZM10.836 14.041C11.34 13.573 11.934 13.177 12.618 12.853C13.302 12.529 13.986 12.259 14.67 12.043C14.022 12.259 13.401 12.529 12.807 12.853C12.231 13.159 11.682 13.492 11.16 13.852L10.836 14.041ZM30.7856 16.93C30.5516 16.822 30.3086 16.615 30.0566 16.309C29.8046 16.003 29.6786 15.742 29.6786 15.526C29.6786 15.346 29.7596 15.256 29.9216 15.256C30.0116 15.256 30.1196 15.274 30.2456 15.31C30.3716 15.328 30.4976 15.337 30.6236 15.337C30.7856 15.337 30.9656 15.283 31.1636 15.175C31.3616 15.049 31.5596 14.986 31.7576 14.986C32.0096 14.986 32.2076 15.157 32.3516 15.499C32.4056 15.589 32.3606 15.715 32.2166 15.877C32.0726 16.039 31.9016 16.192 31.7036 16.336C31.5236 16.48 31.3706 16.588 31.2446 16.66C31.3346 16.66 31.4786 16.597 31.6766 16.471C31.8746 16.327 32.0366 16.192 32.1626 16.066C31.9286 16.354 31.6586 16.579 31.3526 16.741C31.0466 16.885 30.8576 16.948 30.7856 16.93ZM24.9266 27.919C24.6026 27.631 24.3776 27.397 24.2516 27.217C24.1436 27.019 24.0896 26.839 24.0896 26.677C24.0896 26.551 24.1076 26.425 24.1436 26.299C24.1976 26.173 24.2426 26.038 24.2786 25.894C24.4766 25.228 24.8006 24.508 25.2506 23.734C25.7006 22.96 26.1866 22.204 26.7086 21.466C27.2486 20.71 27.7256 20.044 28.1396 19.468C28.1036 19.432 28.0856 19.324 28.0856 19.144C28.0856 18.892 28.1306 18.613 28.2206 18.307C28.3286 17.983 28.4726 17.857 28.6526 17.929C28.8686 17.983 29.1206 18.091 29.4086 18.253C29.7146 18.415 29.9846 18.604 30.2186 18.82C30.4526 19.036 30.5696 19.27 30.5696 19.522C30.5696 19.576 30.5516 19.657 30.5156 19.765H30.4886C30.0206 20.269 29.5616 20.827 29.1116 21.439C28.6616 22.051 28.2656 22.627 27.9236 23.167C27.5996 23.689 27.3746 24.085 27.2486 24.355C27.3566 24.301 27.4736 24.229 27.5996 24.139C27.7256 24.049 27.8606 23.941 28.0046 23.815C27.9146 23.869 27.8336 23.905 27.7616 23.923C27.7076 23.941 27.6986 23.941 27.7346 23.923C28.2026 23.545 28.7426 23.158 29.3546 22.762C29.9846 22.366 30.6236 22.006 31.2716 21.682C31.9196 21.34 32.5316 21.061 33.1076 20.845H33.1616C33.1976 20.845 33.1706 20.872 33.0806 20.926C33.0086 20.962 32.9096 21.007 32.7836 21.061C32.6576 21.115 32.4866 21.205 32.2706 21.331C32.0546 21.439 31.8116 21.574 31.5416 21.736C31.7936 21.628 32.0546 21.502 32.3246 21.358C32.5946 21.214 32.8736 21.097 33.1616 21.007C33.2516 20.971 33.3326 20.944 33.4046 20.926C33.4946 20.908 33.5576 20.899 33.5936 20.899C33.7196 20.899 33.7826 20.944 33.7826 21.034C33.7826 21.16 33.6566 21.34 33.4046 21.574C33.1526 21.808 32.8286 22.033 32.4326 22.249C32.1986 22.375 31.8296 22.609 31.3256 22.951C30.8396 23.293 30.2816 23.698 29.6516 24.166C29.0216 24.616 28.3826 25.084 27.7346 25.57C27.1046 26.056 26.5376 26.506 26.0336 26.92C25.5296 27.334 25.1606 27.667 24.9266 27.919ZM28.0046 23.815C28.0946 23.779 28.1846 23.734 28.2746 23.68C28.3826 23.608 28.4546 23.563 28.4906 23.545C28.8326 23.311 29.2826 23.041 29.8406 22.735C30.4166 22.411 30.9836 22.078 31.5416 21.736C30.6416 22.168 29.9306 22.546 29.4086 22.87C28.8866 23.194 28.4186 23.509 28.0046 23.815ZM32.1728 28.729C31.6688 28.315 31.2368 27.928 30.8768 27.568C30.5348 27.208 30.3638 26.857 30.3638 26.515C30.3638 26.425 30.3728 26.353 30.3908 26.299C30.5708 25.669 30.8948 24.922 31.3628 24.058C31.8488 23.194 32.4158 22.267 33.0638 21.277C33.7298 20.269 34.4318 19.261 35.1698 18.253C35.9078 17.227 36.6278 16.255 37.3298 15.337C38.0498 14.401 38.7068 13.573 39.3008 12.853C39.8948 12.115 40.3718 11.539 40.7318 11.125C41.0918 10.711 41.2808 10.504 41.2988 10.504C41.4788 10.558 41.7488 10.738 42.1088 11.044C42.4688 11.332 42.7118 11.629 42.8378 11.935C42.8738 11.971 42.8918 12.007 42.8918 12.043C42.9098 12.259 43.0358 12.457 43.2698 12.637C43.5038 12.817 43.6208 13.015 43.6208 13.231C43.6208 13.843 43.3868 14.509 42.9188 15.229C42.4508 15.931 41.8388 16.651 41.0828 17.389C40.3268 18.127 39.5078 18.856 38.6258 19.576C37.7438 20.278 36.8708 20.935 36.0068 21.547C35.1608 22.141 34.4228 22.663 33.7928 23.113C33.2528 23.869 32.9288 24.544 32.8208 25.138C32.7308 25.732 32.6948 26.173 32.7128 26.461C33.5948 25.867 34.4318 25.201 35.2238 24.463C35.4218 24.301 35.7098 24.076 36.0878 23.788C36.4838 23.482 36.8888 23.185 37.3028 22.897C37.7168 22.609 38.0318 22.402 38.2478 22.276C38.4458 22.168 38.5988 22.078 38.7068 22.006C38.8328 21.934 38.8238 21.952 38.6798 22.06C38.2478 22.402 37.6718 22.834 36.9518 23.356C37.9778 22.672 39.0038 22.168 40.0298 21.844C40.2278 21.772 40.3808 21.736 40.4888 21.736C40.6688 21.736 40.6598 21.835 40.4618 22.033C40.2638 22.213 40.0298 22.402 39.7598 22.6C38.5178 23.5 37.2398 24.445 35.9258 25.435C34.6118 26.425 33.3608 27.523 32.1728 28.729ZM34.8728 21.628C35.5568 21.124 36.2048 20.584 36.8168 20.008C37.4288 19.414 38.0408 18.838 38.6528 18.28C39.7148 17.272 40.5698 16.291 41.2178 15.337C41.8838 14.383 42.3068 13.537 42.4868 12.799C42.1628 13.159 41.7218 13.654 41.1638 14.284C40.6238 14.896 40.0208 15.589 39.3548 16.363C38.6888 17.119 38.0048 17.902 37.3028 18.712C36.6188 19.522 35.9708 20.296 35.3588 21.034C35.3048 21.088 35.2328 21.169 35.1428 21.277C35.0708 21.367 34.9808 21.484 34.8728 21.628ZM33.1718 26.731C33.3698 26.533 33.6218 26.299 33.9278 26.029C34.2338 25.759 34.5848 25.426 34.9808 25.03C35.1608 24.85 35.4308 24.598 35.7908 24.274C36.1688 23.95 36.5558 23.644 36.9518 23.356C36.2318 23.86 35.6018 24.328 35.0618 24.76C34.5218 25.192 34.0268 25.597 33.5768 25.975L33.1988 26.434C33.0908 26.56 33.0458 26.659 33.0638 26.731C33.0818 26.803 33.1178 26.803 33.1718 26.731ZM45.2612 16.93C45.0272 16.822 44.7842 16.615 44.5322 16.309C44.2802 16.003 44.1542 15.742 44.1542 15.526C44.1542 15.346 44.2352 15.256 44.3972 15.256C44.4872 15.256 44.5952 15.274 44.7212 15.31C44.8472 15.328 44.9732 15.337 45.0992 15.337C45.2612 15.337 45.4412 15.283 45.6392 15.175C45.8372 15.049 46.0352 14.986 46.2332 14.986C46.4852 14.986 46.6832 15.157 46.8272 15.499C46.8812 15.589 46.8362 15.715 46.6922 15.877C46.5482 16.039 46.3772 16.192 46.1792 16.336C45.9992 16.48 45.8462 16.588 45.7202 16.66C45.8102 16.66 45.9542 16.597 46.1522 16.471C46.3502 16.327 46.5122 16.192 46.6382 16.066C46.4042 16.354 46.1342 16.579 45.8282 16.741C45.5222 16.885 45.3332 16.948 45.2612 16.93ZM39.4022 27.919C39.0782 27.631 38.8532 27.397 38.7272 27.217C38.6192 27.019 38.5652 26.839 38.5652 26.677C38.5652 26.551 38.5832 26.425 38.6192 26.299C38.6732 26.173 38.7182 26.038 38.7542 25.894C38.9522 25.228 39.2762 24.508 39.7262 23.734C40.1762 22.96 40.6622 22.204 41.1842 21.466C41.7242 20.71 42.2012 20.044 42.6152 19.468C42.5792 19.432 42.5612 19.324 42.5612 19.144C42.5612 18.892 42.6062 18.613 42.6962 18.307C42.8042 17.983 42.9482 17.857 43.1282 17.929C43.3442 17.983 43.5962 18.091 43.8842 18.253C44.1902 18.415 44.4602 18.604 44.6942 18.82C44.9282 19.036 45.0452 19.27 45.0452 19.522C45.0452 19.576 45.0272 19.657 44.9912 19.765H44.9642C44.4962 20.269 44.0372 20.827 43.5872 21.439C43.1372 22.051 42.7412 22.627 42.3992 23.167C42.0752 23.689 41.8502 24.085 41.7242 24.355C41.8322 24.301 41.9492 24.229 42.0752 24.139C42.2012 24.049 42.3362 23.941 42.4802 23.815C42.3902 23.869 42.3092 23.905 42.2372 23.923C42.1832 23.941 42.1742 23.941 42.2102 23.923C42.6782 23.545 43.2182 23.158 43.8302 22.762C44.4602 22.366 45.0992 22.006 45.7472 21.682C46.3952 21.34 47.0072 21.061 47.5832 20.845H47.6372C47.6732 20.845 47.6462 20.872 47.5562 20.926C47.4842 20.962 47.3852 21.007 47.2592 21.061C47.1332 21.115 46.9622 21.205 46.7462 21.331C46.5302 21.439 46.2872 21.574 46.0172 21.736C46.2692 21.628 46.5302 21.502 46.8002 21.358C47.0702 21.214 47.3492 21.097 47.6372 21.007C47.7272 20.971 47.8082 20.944 47.8802 20.926C47.9702 20.908 48.0332 20.899 48.0692 20.899C48.1952 20.899 48.2582 20.944 48.2582 21.034C48.2582 21.16 48.1322 21.34 47.8802 21.574C47.6282 21.808 47.3042 22.033 46.9082 22.249C46.6742 22.375 46.3052 22.609 45.8012 22.951C45.3152 23.293 44.7572 23.698 44.1272 24.166C43.4972 24.616 42.8582 25.084 42.2102 25.57C41.5802 26.056 41.0132 26.506 40.5092 26.92C40.0052 27.334 39.6362 27.667 39.4022 27.919ZM42.4802 23.815C42.5702 23.779 42.6602 23.734 42.7502 23.68C42.8582 23.608 42.9302 23.563 42.9662 23.545C43.3082 23.311 43.7582 23.041 44.3162 22.735C44.8922 22.411 45.4592 22.078 46.0172 21.736C45.1172 22.168 44.4062 22.546 43.8842 22.87C43.3622 23.194 42.8942 23.509 42.4802 23.815ZM42.8413 36.316C42.7153 36.316 42.5713 36.271 42.4093 36.181C42.2293 36.091 42.0853 35.974 41.9773 35.83C41.6173 35.326 41.4373 34.678 41.4373 33.886C41.4373 33.382 41.6263 32.689 42.0043 31.807C42.3643 30.943 42.8503 29.971 43.4623 28.891C44.0743 27.829 44.7493 26.74 45.4873 25.624C46.2253 24.508 46.9543 23.455 47.6743 22.465C48.4123 21.475 49.0873 20.629 49.6993 19.927C49.3393 20.269 48.9613 20.665 48.5653 21.115C48.1873 21.565 47.8363 21.979 47.5123 22.357C47.2063 22.735 46.9903 23.005 46.8643 23.167C46.8463 23.185 46.8373 23.176 46.8373 23.14C46.8553 23.086 46.9003 22.996 46.9723 22.87C46.9723 22.852 47.0713 22.726 47.2693 22.492C47.4673 22.24 47.7103 21.934 47.9983 21.574C48.3043 21.214 48.6103 20.854 48.9163 20.494C49.2403 20.134 49.5373 19.828 49.8073 19.576C49.7533 19.486 49.6993 19.396 49.6453 19.306C49.6093 19.216 49.5913 19.135 49.5913 19.063C49.5913 18.901 49.7173 18.82 49.9693 18.82C50.0953 18.82 50.2033 18.829 50.2933 18.847C50.5453 18.883 50.8243 19.036 51.1303 19.306C51.4543 19.576 51.6343 19.81 51.6703 20.008C51.5623 20.17 51.4273 20.332 51.2653 20.494C51.1213 20.656 50.9593 20.836 50.7793 21.034C51.1573 20.782 51.5893 20.476 52.0753 20.116C52.5613 19.756 53.0563 19.396 53.5603 19.036C54.0823 18.676 54.5503 18.379 54.9643 18.145C55.3963 17.893 55.7293 17.767 55.9633 17.767C56.4673 17.767 56.8183 17.911 57.0163 18.199C57.2143 18.487 57.3133 18.829 57.3133 19.225C57.3133 19.513 57.2683 19.81 57.1783 20.116C57.0883 20.422 56.9713 20.683 56.8273 20.899C56.7913 20.953 56.6653 21.151 56.4493 21.493C56.2513 21.817 56.0173 22.159 55.7473 22.519C55.4953 22.861 55.2793 23.104 55.0993 23.248C55.4053 22.762 55.6573 22.33 55.8553 21.952C56.0533 21.556 56.1073 21.358 56.0173 21.358C55.5673 22.186 55.1893 22.834 54.8833 23.302C54.5953 23.77 54.3523 24.121 54.1543 24.355C53.9743 24.589 53.8123 24.805 53.6683 25.003C52.9483 25.939 52.1563 26.749 51.2923 27.433C50.4283 28.117 49.5553 28.459 48.6733 28.459C48.2773 28.459 47.9083 28.387 47.5663 28.243C47.2423 28.099 46.9633 27.973 46.7293 27.865C46.5133 27.757 46.3513 27.64 46.2433 27.514C45.8653 28.126 45.4693 28.801 45.0553 29.539C44.6413 30.277 44.2543 31.006 43.8943 31.726C43.5343 32.446 43.2373 33.094 43.0033 33.67C42.7693 34.246 42.6433 34.678 42.6253 34.966C42.6253 35.272 42.7243 35.542 42.9223 35.776C43.0483 35.92 43.1113 36.037 43.1113 36.127C43.1113 36.253 43.0213 36.316 42.8413 36.316ZM47.9173 27.514C48.1153 27.424 48.4123 27.244 48.8083 26.974C49.2223 26.704 49.5823 26.425 49.8883 26.137C50.1223 25.921 50.4373 25.615 50.8333 25.219C51.2293 24.805 51.6523 24.346 52.1023 23.842C52.5523 23.32 52.9843 22.78 53.3983 22.222C53.8123 21.646 54.1453 21.079 54.3973 20.521C54.3253 20.647 54.2083 20.809 54.0463 21.007C53.8843 21.205 53.7133 21.412 53.5333 21.628C53.7133 21.394 53.8663 21.178 53.9923 20.98C54.1183 20.764 54.2173 20.593 54.2893 20.467C54.4513 20.179 54.5773 19.918 54.6673 19.684C54.7753 19.45 54.8203 19.27 54.8023 19.144C54.7303 19.18 54.6403 19.225 54.5323 19.279C54.4423 19.333 54.3433 19.405 54.2353 19.495C53.5333 19.981 52.7593 20.557 51.9133 21.223C51.0853 21.889 50.2753 22.6 49.4833 23.356C48.7093 24.094 48.0433 24.832 47.4853 25.57C47.3773 25.696 47.2513 25.876 47.1073 26.11C46.9633 26.344 46.7923 26.614 46.5943 26.92C46.7743 27.136 46.9633 27.244 47.1613 27.244C48.0073 27.244 48.9613 26.749 50.0233 25.759L50.0503 25.732L50.1583 25.624C50.1583 25.624 50.1493 25.633 50.1313 25.651C50.1313 25.651 50.1043 25.678 50.0503 25.732C50.0323 25.732 50.0233 25.741 50.0233 25.759C49.5913 26.155 49.1683 26.488 48.7543 26.758C48.3403 27.028 47.9173 27.226 47.4853 27.352C47.4313 27.37 47.4043 27.397 47.4043 27.433C47.4043 27.469 47.4583 27.505 47.5663 27.541C47.6923 27.577 47.8093 27.568 47.9173 27.514ZM53.3983 21.79L53.4253 21.763L53.4523 21.736V21.709H53.4793L53.5063 21.682V21.655H53.5333V21.628C53.5333 21.628 53.5333 21.637 53.5333 21.655C53.5333 21.655 53.5243 21.655 53.5063 21.655C53.5063 21.655 53.5063 21.664 53.5063 21.682C53.4883 21.682 53.4793 21.691 53.4793 21.709C53.4793 21.709 53.4703 21.709 53.4523 21.709C53.4523 21.727 53.4523 21.736 53.4523 21.736C53.4343 21.754 53.4253 21.763 53.4253 21.763C53.4073 21.781 53.3983 21.79 53.3983 21.79ZM50.3203 25.462C50.4643 25.318 50.5993 25.156 50.7253 24.976C50.8693 24.778 51.0133 24.598 51.1573 24.436C51.3553 24.22 51.6433 23.905 52.0213 23.491C52.3993 23.059 52.7683 22.618 53.1283 22.168C52.7323 22.672 52.2913 23.221 51.8053 23.815C51.3193 24.391 50.8243 24.94 50.3203 25.462ZM53.5464 36.316C53.4204 36.316 53.2764 36.271 53.1144 36.181C52.9344 36.091 52.7904 35.974 52.6824 35.83C52.3224 35.326 52.1424 34.678 52.1424 33.886C52.1424 33.382 52.3314 32.689 52.7094 31.807C53.0694 30.943 53.5554 29.971 54.1674 28.891C54.7794 27.829 55.4544 26.74 56.1924 25.624C56.9304 24.508 57.6594 23.455 58.3794 22.465C59.1174 21.475 59.7924 20.629 60.4044 19.927C60.0444 20.269 59.6664 20.665 59.2704 21.115C58.8924 21.565 58.5414 21.979 58.2174 22.357C57.9114 22.735 57.6954 23.005 57.5694 23.167C57.5514 23.185 57.5424 23.176 57.5424 23.14C57.5604 23.086 57.6054 22.996 57.6774 22.87C57.6774 22.852 57.7764 22.726 57.9744 22.492C58.1724 22.24 58.4154 21.934 58.7034 21.574C59.0094 21.214 59.3154 20.854 59.6214 20.494C59.9454 20.134 60.2424 19.828 60.5124 19.576C60.4584 19.486 60.4044 19.396 60.3504 19.306C60.3144 19.216 60.2964 19.135 60.2964 19.063C60.2964 18.901 60.4224 18.82 60.6744 18.82C60.8004 18.82 60.9084 18.829 60.9984 18.847C61.2504 18.883 61.5294 19.036 61.8354 19.306C62.1594 19.576 62.3394 19.81 62.3754 20.008C62.2674 20.17 62.1324 20.332 61.9704 20.494C61.8264 20.656 61.6644 20.836 61.4844 21.034C61.8624 20.782 62.2944 20.476 62.7804 20.116C63.2664 19.756 63.7614 19.396 64.2654 19.036C64.7874 18.676 65.2554 18.379 65.6694 18.145C66.1014 17.893 66.4344 17.767 66.6684 17.767C67.1724 17.767 67.5234 17.911 67.7214 18.199C67.9194 18.487 68.0184 18.829 68.0184 19.225C68.0184 19.513 67.9734 19.81 67.8834 20.116C67.7934 20.422 67.6764 20.683 67.5324 20.899C67.4964 20.953 67.3704 21.151 67.1544 21.493C66.9564 21.817 66.7224 22.159 66.4524 22.519C66.2004 22.861 65.9844 23.104 65.8044 23.248C66.1104 22.762 66.3624 22.33 66.5604 21.952C66.7584 21.556 66.8124 21.358 66.7224 21.358C66.2724 22.186 65.8944 22.834 65.5884 23.302C65.3004 23.77 65.0574 24.121 64.8594 24.355C64.6794 24.589 64.5174 24.805 64.3734 25.003C63.6534 25.939 62.8614 26.749 61.9974 27.433C61.1334 28.117 60.2604 28.459 59.3784 28.459C58.9824 28.459 58.6134 28.387 58.2714 28.243C57.9474 28.099 57.6684 27.973 57.4344 27.865C57.2184 27.757 57.0564 27.64 56.9484 27.514C56.5704 28.126 56.1744 28.801 55.7604 29.539C55.3464 30.277 54.9594 31.006 54.5994 31.726C54.2394 32.446 53.9424 33.094 53.7084 33.67C53.4744 34.246 53.3484 34.678 53.3304 34.966C53.3304 35.272 53.4294 35.542 53.6274 35.776C53.7534 35.92 53.8164 36.037 53.8164 36.127C53.8164 36.253 53.7264 36.316 53.5464 36.316ZM58.6224 27.514C58.8204 27.424 59.1174 27.244 59.5134 26.974C59.9274 26.704 60.2874 26.425 60.5934 26.137C60.8274 25.921 61.1424 25.615 61.5384 25.219C61.9344 24.805 62.3574 24.346 62.8074 23.842C63.2574 23.32 63.6894 22.78 64.1034 22.222C64.5174 21.646 64.8504 21.079 65.1024 20.521C65.0304 20.647 64.9134 20.809 64.7514 21.007C64.5894 21.205 64.4184 21.412 64.2384 21.628C64.4184 21.394 64.5714 21.178 64.6974 20.98C64.8234 20.764 64.9224 20.593 64.9944 20.467C65.1564 20.179 65.2824 19.918 65.3724 19.684C65.4804 19.45 65.5254 19.27 65.5074 19.144C65.4354 19.18 65.3454 19.225 65.2374 19.279C65.1474 19.333 65.0484 19.405 64.9404 19.495C64.2384 19.981 63.4644 20.557 62.6184 21.223C61.7904 21.889 60.9804 22.6 60.1884 23.356C59.4144 24.094 58.7484 24.832 58.1904 25.57C58.0824 25.696 57.9564 25.876 57.8124 26.11C57.6684 26.344 57.4974 26.614 57.2994 26.92C57.4794 27.136 57.6684 27.244 57.8664 27.244C58.7124 27.244 59.6664 26.749 60.7284 25.759L60.7554 25.732L60.8634 25.624C60.8634 25.624 60.8544 25.633 60.8364 25.651C60.8364 25.651 60.8094 25.678 60.7554 25.732C60.7374 25.732 60.7284 25.741 60.7284 25.759C60.2964 26.155 59.8734 26.488 59.4594 26.758C59.0454 27.028 58.6224 27.226 58.1904 27.352C58.1364 27.37 58.1094 27.397 58.1094 27.433C58.1094 27.469 58.1634 27.505 58.2714 27.541C58.3974 27.577 58.5144 27.568 58.6224 27.514ZM64.1034 21.79L64.1304 21.763L64.1574 21.736V21.709H64.1844L64.2114 21.682V21.655H64.2384V21.628C64.2384 21.628 64.2384 21.637 64.2384 21.655C64.2384 21.655 64.2294 21.655 64.2114 21.655C64.2114 21.655 64.2114 21.664 64.2114 21.682C64.1934 21.682 64.1844 21.691 64.1844 21.709C64.1844 21.709 64.1754 21.709 64.1574 21.709C64.1574 21.727 64.1574 21.736 64.1574 21.736C64.1394 21.754 64.1304 21.763 64.1304 21.763C64.1124 21.781 64.1034 21.79 64.1034 21.79ZM61.0254 25.462C61.1694 25.318 61.3044 25.156 61.4304 24.976C61.5744 24.778 61.7184 24.598 61.8624 24.436C62.0604 24.22 62.3484 23.905 62.7264 23.491C63.1044 23.059 63.4734 22.618 63.8334 22.168C63.4374 22.672 62.9964 23.221 62.5104 23.815C62.0244 24.391 61.5294 24.94 61.0254 25.462ZM69.5975 28.216C69.3455 28.216 69.0755 28.162 68.7875 28.054C68.5175 27.964 68.2745 27.82 68.0585 27.622C67.8425 27.424 67.6085 27.127 67.3565 26.731C67.1225 26.317 67.0055 25.912 67.0055 25.516C67.0055 25.354 67.0325 25.21 67.0865 25.084C67.6625 23.536 68.5985 22.123 69.8945 20.845C71.1905 19.549 72.7745 18.46 74.6465 17.578C74.8985 17.578 75.1595 17.677 75.4295 17.875C75.6995 18.055 75.9245 18.28 76.1045 18.55L76.5905 18.712C76.5725 18.514 76.5095 18.397 76.4015 18.361C76.2935 18.307 76.2395 18.235 76.2395 18.145C76.2755 17.983 76.3925 17.893 76.5905 17.875C76.7885 17.839 76.9325 17.821 77.0225 17.821C77.3105 17.821 77.5445 17.956 77.7245 18.226C77.9225 18.478 78.0305 18.757 78.0485 19.063C78.4805 19.117 78.9305 19.153 79.3985 19.171C79.8665 19.189 80.2715 19.207 80.6135 19.225C80.9735 19.225 81.1715 19.225 81.2075 19.225H81.2885C81.3425 19.225 81.3695 19.261 81.3695 19.333C81.3695 19.459 81.2975 19.567 81.1535 19.657C80.9735 19.801 80.5505 19.9 79.8845 19.954C79.2365 19.99 78.5525 20.008 77.8325 20.008C77.7425 20.278 77.6075 20.566 77.4275 20.872C77.2475 21.178 77.0405 21.493 76.8065 21.817C76.6445 22.051 76.4015 22.366 76.0775 22.762C75.7535 23.14 75.4205 23.527 75.0785 23.923C74.7365 24.319 74.4485 24.652 74.2145 24.922C74.3765 24.778 74.6375 24.526 74.9975 24.166C75.3755 23.788 75.6815 23.455 75.9155 23.167C76.0055 23.059 76.1405 22.888 76.3205 22.654C76.5005 22.402 76.6715 22.168 76.8335 21.952C77.0135 21.718 77.1215 21.565 77.1575 21.493C76.9235 21.979 76.6265 22.447 76.2665 22.897C75.9065 23.347 75.5465 23.752 75.1865 24.112C74.8265 24.472 74.5205 24.769 74.2685 25.003C74.0165 25.219 73.8725 25.345 73.8365 25.381C73.0805 26.173 72.3155 26.848 71.5415 27.406C70.7855 27.946 70.1375 28.216 69.5975 28.216ZM68.7335 27.298C68.8235 27.298 68.9315 27.271 69.0575 27.217C69.2555 27.109 69.5075 26.938 69.8135 26.704C70.1375 26.47 70.4705 26.227 70.8125 25.975C71.1185 25.723 71.4605 25.417 71.8385 25.057C72.2165 24.679 72.6305 24.238 73.0805 23.734C73.4765 23.284 73.8995 22.798 74.3495 22.276C74.7995 21.736 75.2405 21.178 75.6725 20.602L75.2675 20.98C75.3935 20.854 75.5465 20.683 75.7265 20.467C75.9245 20.233 76.0865 20.053 76.2125 19.927C75.6545 19.891 75.3215 19.864 75.2135 19.846C75.1955 19.882 75.1685 19.9 75.1325 19.9C75.0965 19.9 75.0785 19.837 75.0785 19.711C75.0785 19.675 75.0785 19.63 75.0785 19.576C75.0785 19.504 75.0875 19.432 75.1055 19.36C74.9255 19.342 74.7275 19.369 74.5115 19.441C74.2955 19.513 74.0525 19.666 73.7825 19.9C73.4765 20.188 73.0805 20.548 72.5945 20.98C72.1085 21.412 71.6045 21.907 71.0825 22.465C70.5605 23.005 70.0655 23.59 69.5975 24.22C69.1475 24.85 68.7875 25.516 68.5175 26.218C68.4275 26.434 68.3825 26.65 68.3825 26.866C68.3825 27.172 68.5175 27.262 68.7875 27.136C68.6975 27.19 68.6525 27.226 68.6525 27.244C68.6525 27.28 68.6795 27.298 68.7335 27.298ZM68.7875 27.136C69.1295 26.956 69.6695 26.578 70.4075 26.002C71.1635 25.408 71.9285 24.688 72.7025 23.842C72.9545 23.572 73.2425 23.266 73.5665 22.924C73.8905 22.564 74.2055 22.222 74.5115 21.898C74.8175 21.574 75.0515 21.322 75.2135 21.142C74.7995 21.646 74.4125 22.105 74.0525 22.519C73.7105 22.915 73.3775 23.293 73.0535 23.653C72.2975 24.463 71.5235 25.192 70.7315 25.84C69.9575 26.488 69.3095 26.92 68.7875 27.136ZM78.7296 28.702C78.6576 28.702 78.5046 28.63 78.2706 28.486C78.0546 28.36 77.8476 28.198 77.6496 28C77.4516 27.82 77.3526 27.649 77.3526 27.487C77.3526 27.379 77.3796 27.325 77.4336 27.325C77.4696 27.325 77.5236 27.343 77.5956 27.379C77.6856 27.397 77.7846 27.424 77.8926 27.46C77.7846 27.244 77.7126 27.01 77.6766 26.758C77.6766 26.722 77.7756 26.524 77.9736 26.164C78.1716 25.804 78.4146 25.363 78.7026 24.841C79.0086 24.319 79.3056 23.797 79.5936 23.275C79.8996 22.753 80.1516 22.312 80.3496 21.952C80.5656 21.574 80.6736 21.376 80.6736 21.358C80.6736 21.304 80.5566 21.43 80.3226 21.736C80.0886 22.024 79.8186 22.366 79.5126 22.762C79.2246 23.158 78.9996 23.509 78.8376 23.815C79.0716 23.329 79.3236 22.816 79.5936 22.276C79.8636 21.736 80.2326 21.097 80.7006 20.359C81.1866 19.603 81.8346 18.676 82.6446 17.578C82.8966 17.686 83.1756 17.821 83.4816 17.983C83.7876 18.127 84.0486 18.289 84.2646 18.469C84.4806 18.649 84.5886 18.838 84.5886 19.036C84.5886 19.108 84.5616 19.189 84.5076 19.279C83.8596 20.143 83.2746 20.962 82.7526 21.736C82.2306 22.51 81.8076 23.158 81.4836 23.68C81.1596 24.202 80.9616 24.526 80.8896 24.652C81.0336 24.562 81.2226 24.454 81.4566 24.328C81.6906 24.184 81.9516 24.022 82.2396 23.842C82.1676 23.914 82.0956 23.977 82.0236 24.031C81.9516 24.067 81.8976 24.103 81.8616 24.139C81.8076 24.175 81.7356 24.247 81.6456 24.355C81.5736 24.445 81.5736 24.472 81.6456 24.436C81.8976 24.238 82.3296 23.941 82.9416 23.545C83.5536 23.131 84.2196 22.672 84.9396 22.168C85.6776 21.646 86.3256 21.142 86.8836 20.656C86.4336 20.926 85.9206 21.277 85.3446 21.709C85.9566 21.223 86.5326 20.719 87.0726 20.197C87.6306 19.675 87.9996 19.306 88.1796 19.09C88.1616 19.036 88.1526 18.982 88.1526 18.928C88.1526 18.856 88.1526 18.793 88.1526 18.739C88.1526 18.253 88.2966 17.866 88.5846 17.578C88.8726 17.272 89.1066 17.047 89.2866 16.903C89.4666 16.759 89.6196 16.687 89.7456 16.687C89.9616 16.687 90.1326 16.822 90.2586 17.092C90.3846 17.344 90.4476 17.614 90.4476 17.902C90.4476 18.244 90.3846 18.487 90.2586 18.631C90.1686 18.757 89.8806 19.045 89.3946 19.495C88.9266 19.927 88.3416 20.449 87.6396 21.061C86.9556 21.655 86.2356 22.267 85.4796 22.897C84.7416 23.527 84.0396 24.121 83.3736 24.679C82.7256 25.219 82.1946 25.651 81.7806 25.975C81.4926 26.191 81.2226 26.407 80.9706 26.623C80.7186 26.821 80.4846 27.01 80.2686 27.19C80.3226 27.208 80.3766 27.253 80.4306 27.325C80.5026 27.397 80.5386 27.487 80.5386 27.595C80.5386 27.685 80.4306 27.82 80.2146 28C79.9986 28.18 79.7466 28.342 79.4586 28.486C79.1706 28.63 78.9276 28.702 78.7296 28.702ZM84.9936 21.952H85.0206V21.925H85.0476H85.0746V21.898H85.1016V21.871H85.1286L85.1556 21.844C85.1556 21.844 85.1466 21.853 85.1286 21.871C85.1286 21.871 85.1196 21.871 85.1016 21.871C85.1016 21.889 85.1016 21.898 85.1016 21.898C85.1016 21.898 85.0926 21.898 85.0746 21.898C85.0746 21.916 85.0746 21.925 85.0746 21.925C85.0566 21.925 85.0476 21.925 85.0476 21.925C85.0296 21.925 85.0206 21.925 85.0206 21.925C85.0206 21.925 85.0206 21.934 85.0206 21.952C85.0026 21.952 84.9936 21.952 84.9936 21.952ZM82.2396 23.842C82.4196 23.698 82.6356 23.536 82.8876 23.356C83.1396 23.176 83.4366 22.987 83.7786 22.789C83.9046 22.699 84.0756 22.591 84.2916 22.465C84.5076 22.321 84.7326 22.159 84.9666 21.979C84.6426 22.213 84.3366 22.438 84.0486 22.654C83.7786 22.87 83.5446 23.041 83.3466 23.167L82.2396 23.842Z" fill="white"/>
</svg>
