<svg width="133" height="32" viewBox="0 0 133 32" fill="none" xmlns="http://www.w3.org/2000/svg">
<path d="M0.958807 11.7866V8.36364H17.0859V11.7866H11.0742V28H6.97053V11.7866H0.958807ZM23.7496 19.4858V28H19.6651V8.36364H23.6346V15.8711H23.8072C24.1396 15.0018 24.6765 14.321 25.418 13.8288C26.1594 13.3303 27.0895 13.081 28.2081 13.081C29.2308 13.081 30.1225 13.3047 30.8832 13.7521C31.6502 14.1932 32.2447 14.8292 32.6665 15.6602C33.0948 16.4847 33.3058 17.4723 33.2994 18.6229V28H29.2148V19.3516C29.2212 18.4439 28.9911 17.7376 28.5245 17.2326C28.0643 16.7276 27.4187 16.4751 26.5877 16.4751C26.0316 16.4751 25.5394 16.5934 25.1112 16.8299C24.6893 17.0664 24.3569 17.4116 24.114 17.8654C23.8775 18.3129 23.756 18.853 23.7496 19.4858ZM36.5138 28V13.2727H40.4736V15.8423H40.627C40.8955 14.9283 41.3461 14.2379 41.979 13.7713C42.6118 13.2983 43.3405 13.0618 44.165 13.0618C44.3696 13.0618 44.5901 13.0746 44.8266 13.1001C45.0631 13.1257 45.2709 13.1609 45.4498 13.2056V16.8299C45.2581 16.7724 44.9928 16.7212 44.654 16.6765C44.3153 16.6317 44.0052 16.6094 43.724 16.6094C43.1231 16.6094 42.5862 16.7404 42.1132 17.0025C41.6466 17.2582 41.2758 17.6161 41.001 18.0763C40.7325 18.5366 40.5983 19.0671 40.5983 19.668V28H36.5138ZM51.3393 28.2781C50.3997 28.2781 49.5623 28.1151 48.8272 27.7891C48.0922 27.4567 47.5105 26.9677 47.0822 26.3221C46.6603 25.6701 46.4494 24.8583 46.4494 23.8867C46.4494 23.0685 46.5996 22.3814 46.9 21.8253C47.2005 21.2692 47.6096 20.8217 48.1273 20.483C48.6451 20.1442 49.2331 19.8885 49.8915 19.7159C50.5563 19.5433 51.253 19.4219 51.9817 19.3516C52.8382 19.2621 53.5286 19.179 54.0527 19.1023C54.5769 19.0192 54.9572 18.8977 55.1937 18.7379C55.4302 18.5781 55.5485 18.3416 55.5485 18.0284V17.9709C55.5485 17.3636 55.3567 16.8938 54.9732 16.5614C54.5961 16.229 54.0591 16.0629 53.3624 16.0629C52.6273 16.0629 52.0424 16.2259 51.6078 16.5518C51.1731 16.8714 50.8855 17.2741 50.7449 17.7599L46.9672 17.4531C47.1589 16.5582 47.536 15.7848 48.0985 15.1328C48.661 14.4744 49.3865 13.9695 50.275 13.6179C51.1699 13.2599 52.2054 13.081 53.3816 13.081C54.1998 13.081 54.9828 13.1768 55.7306 13.3686C56.4849 13.5604 57.1529 13.8576 57.7346 14.2603C58.3226 14.663 58.786 15.1808 59.1248 15.8136C59.4636 16.44 59.633 17.1911 59.633 18.0668V28H55.7594V25.9577H55.6444C55.4078 26.418 55.0914 26.8239 54.6951 27.1754C54.2988 27.5206 53.8226 27.7923 53.2665 27.9904C52.7104 28.1822 52.068 28.2781 51.3393 28.2781ZM52.5091 25.4592C53.1099 25.4592 53.6404 25.3409 54.1007 25.1044C54.5609 24.8615 54.9221 24.5355 55.1841 24.1264C55.4462 23.7173 55.5772 23.2539 55.5772 22.7362V21.1733C55.4494 21.2564 55.2736 21.3331 55.0499 21.4034C54.8326 21.4673 54.5865 21.5281 54.3116 21.5856C54.0368 21.6367 53.7619 21.6847 53.487 21.7294C53.2122 21.7678 52.9629 21.8029 52.7392 21.8349C52.2598 21.9052 51.8411 22.017 51.4831 22.1705C51.1252 22.3239 50.8471 22.5316 50.649 22.7937C50.4508 23.0494 50.3517 23.369 50.3517 23.7525C50.3517 24.3086 50.5531 24.7337 50.9558 25.0277C51.3649 25.3153 51.8826 25.4592 52.5091 25.4592ZM75.0554 17.4723L71.3161 17.7024C71.2521 17.3828 71.1147 17.0952 70.9038 16.8395C70.6928 16.5774 70.4148 16.3697 70.0696 16.2163C69.7308 16.0565 69.3249 15.9766 68.8519 15.9766C68.2191 15.9766 67.6854 16.1108 67.2507 16.3793C66.8161 16.6413 66.5987 16.9929 66.5987 17.4339C66.5987 17.7855 66.7393 18.0827 67.0206 18.3256C67.3018 18.5685 67.7844 18.7635 68.4684 18.9105L71.1339 19.4474C72.5657 19.7415 73.6332 20.2145 74.3363 20.8665C75.0394 21.5185 75.391 22.375 75.391 23.4361C75.391 24.4013 75.1065 25.2482 74.5376 25.9769C73.9751 26.7056 73.2017 27.2745 72.2173 27.6836C71.2393 28.0863 70.1112 28.2876 68.8327 28.2876C66.8832 28.2876 65.3299 27.8817 64.1729 27.07C63.0224 26.2518 62.348 25.1396 62.1499 23.7333L66.1673 23.5224C66.2887 24.1168 66.5827 24.5707 67.0494 24.8839C67.516 25.1907 68.1136 25.3441 68.8423 25.3441C69.5582 25.3441 70.1335 25.2067 70.5682 24.9318C71.0092 24.6506 71.233 24.2894 71.2393 23.8484C71.233 23.4776 71.0763 23.174 70.7695 22.9375C70.4627 22.6946 69.9897 22.5092 69.3505 22.3814L66.8001 21.8732C65.3619 21.5856 64.2912 21.087 63.5881 20.3775C62.8913 19.668 62.543 18.7635 62.543 17.6641C62.543 16.718 62.7987 15.9031 63.31 15.2191C63.8278 14.5352 64.5533 14.0078 65.4865 13.6371C66.4261 13.2663 67.5256 13.081 68.7848 13.081C70.6449 13.081 72.1087 13.4741 73.1761 14.2603C74.25 15.0465 74.8764 16.1172 75.0554 17.4723ZM82.0475 19.4858V28H77.963V8.36364H81.9324V15.8711H82.105C82.4374 15.0018 82.9743 14.321 83.7158 13.8288C84.4573 13.3303 85.3873 13.081 86.5059 13.081C87.5287 13.081 88.4204 13.3047 89.181 13.7521C89.9481 14.1932 90.5425 14.8292 90.9644 15.6602C91.3927 16.4847 91.6036 17.4723 91.5972 18.6229V28H87.5127V19.3516C87.5191 18.4439 87.289 17.7376 86.8224 17.2326C86.3621 16.7276 85.7165 16.4751 84.8856 16.4751C84.3295 16.4751 83.8373 16.5934 83.409 16.8299C82.9871 17.0664 82.6547 17.4116 82.4118 17.8654C82.1753 18.3129 82.0539 18.853 82.0475 19.4858ZM101.523 28.2876C100.008 28.2876 98.7044 27.9808 97.6113 27.3672C96.5247 26.7472 95.6873 25.8714 95.0993 24.7401C94.5112 23.6023 94.2172 22.2567 94.2172 20.7035C94.2172 19.1886 94.5112 17.859 95.0993 16.7148C95.6873 15.5707 96.5151 14.679 97.5826 14.0398C98.6564 13.4006 99.9157 13.081 101.36 13.081C102.332 13.081 103.236 13.2376 104.074 13.5508C104.917 13.8576 105.653 14.321 106.279 14.9411C106.912 15.5611 107.404 16.3409 107.756 17.2805C108.107 18.2138 108.283 19.3068 108.283 20.5597V21.6815H95.8471V19.1502H104.438C104.438 18.5621 104.31 18.0412 104.055 17.5874C103.799 17.1335 103.444 16.7788 102.99 16.5231C102.543 16.261 102.022 16.13 101.427 16.13C100.807 16.13 100.258 16.2738 99.7782 16.5614C99.3052 16.8427 98.9345 17.223 98.666 17.7024C98.3975 18.1754 98.2601 18.7028 98.2537 19.2844V21.6911C98.2537 22.4197 98.388 23.0494 98.6564 23.5799C98.9313 24.1104 99.318 24.5195 99.8166 24.8072C100.315 25.0948 100.906 25.2386 101.59 25.2386C102.044 25.2386 102.46 25.1747 102.837 25.0469C103.214 24.919 103.537 24.7273 103.805 24.4716C104.074 24.2159 104.278 23.9027 104.419 23.532L108.197 23.7812C108.005 24.6889 107.612 25.4815 107.017 26.1591C106.429 26.8303 105.669 27.3544 104.735 27.7315C103.808 28.1023 102.738 28.2876 101.523 28.2876ZM110.948 28V13.2727H114.908V15.8423H115.062C115.33 14.9283 115.781 14.2379 116.414 13.7713C117.046 13.2983 117.775 13.0618 118.6 13.0618C118.804 13.0618 119.025 13.0746 119.261 13.1001C119.498 13.1257 119.705 13.1609 119.884 13.2056V16.8299C119.693 16.7724 119.427 16.7212 119.089 16.6765C118.75 16.6317 118.44 16.6094 118.159 16.6094C117.558 16.6094 117.021 16.7404 116.548 17.0025C116.081 17.2582 115.71 17.6161 115.436 18.0763C115.167 18.5366 115.033 19.0671 115.033 19.668V28H110.948Z" fill="black"/>
<path d="M125.773 14.7955V10.6023H127.898C128.068 10.6023 128.254 10.6515 128.455 10.75C128.655 10.8447 128.826 10.9924 128.966 11.1932C129.11 11.3902 129.182 11.6402 129.182 11.9432C129.182 12.25 129.108 12.5114 128.96 12.7273C128.813 12.9394 128.633 13.1004 128.42 13.2102C128.212 13.3201 128.015 13.375 127.83 13.375H126.295V12.6932H127.545C127.67 12.6932 127.805 12.6307 127.949 12.5057C128.097 12.3807 128.17 12.1932 128.17 11.9432C128.17 11.6856 128.097 11.5114 127.949 11.4205C127.805 11.3295 127.678 11.2841 127.568 11.2841H126.693V14.7955H125.773ZM128.307 12.8182L129.352 14.7955H128.341L127.318 12.8182H128.307ZM127.364 17.2955C126.735 17.2955 126.146 17.178 125.597 16.9432C125.047 16.7083 124.564 16.3826 124.148 15.9659C123.731 15.5492 123.405 15.0663 123.17 14.517C122.936 13.9678 122.818 13.3788 122.818 12.75C122.818 12.1212 122.936 11.5322 123.17 10.983C123.405 10.4337 123.731 9.95076 124.148 9.53409C124.564 9.11742 125.047 8.79167 125.597 8.55682C126.146 8.32197 126.735 8.20455 127.364 8.20455C127.992 8.20455 128.581 8.32197 129.131 8.55682C129.68 8.79167 130.163 9.11742 130.58 9.53409C130.996 9.95076 131.322 10.4337 131.557 10.983C131.792 11.5322 131.909 12.1212 131.909 12.75C131.909 13.3788 131.792 13.9678 131.557 14.517C131.322 15.0663 130.996 15.5492 130.58 15.9659C130.163 16.3826 129.68 16.7083 129.131 16.9432C128.581 17.178 127.992 17.2955 127.364 17.2955ZM127.364 16.2045C128 16.2045 128.58 16.0492 129.102 15.7386C129.625 15.428 130.042 15.0114 130.352 14.4886C130.663 13.9659 130.818 13.3864 130.818 12.75C130.818 12.1136 130.663 11.5341 130.352 11.0114C130.042 10.4886 129.625 10.072 129.102 9.76136C128.58 9.45076 128 9.29545 127.364 9.29545C126.727 9.29545 126.148 9.45076 125.625 9.76136C125.102 10.072 124.686 10.4886 124.375 11.0114C124.064 11.5341 123.909 12.1136 123.909 12.75C123.909 13.3864 124.064 13.9659 124.375 14.4886C124.686 15.0114 125.102 15.428 125.625 15.7386C126.148 16.0492 126.727 16.2045 127.364 16.2045Z" fill="black"/>
</svg>
